G04*
G04 #@! TF.GenerationSoftware,Altium Limited,Altium Designer,21.1.1 (26)*
G04*
G04 Layer_Physical_Order=2*
G04 Layer_Color=16711680*
%FSAX44Y44*%
%MOMM*%
G71*
G04*
G04 #@! TF.SameCoordinates,35B4BD9A-10F4-4648-9EF8-68C66FDF8F35*
G04*
G04*
G04 #@! TF.FilePolarity,Positive*
G04*
G01*
G75*
%ADD10C,0.2000*%
%ADD12C,0.1500*%
%ADD66C,0.3000*%
%ADD68C,0.5000*%
%ADD69C,0.4000*%
G04:AMPARAMS|DCode=72|XSize=1.8mm|YSize=1.6mm|CornerRadius=0.4mm|HoleSize=0mm|Usage=FLASHONLY|Rotation=0.000|XOffset=0mm|YOffset=0mm|HoleType=Round|Shape=RoundedRectangle|*
%AMROUNDEDRECTD72*
21,1,1.8000,0.8000,0,0,0.0*
21,1,1.0000,1.6000,0,0,0.0*
1,1,0.8000,0.5000,-0.4000*
1,1,0.8000,-0.5000,-0.4000*
1,1,0.8000,-0.5000,0.4000*
1,1,0.8000,0.5000,0.4000*
%
%ADD72ROUNDEDRECTD72*%
%ADD73C,0.5500*%
G04:AMPARAMS|DCode=74|XSize=2.8mm|YSize=1.8mm|CornerRadius=0.675mm|HoleSize=0mm|Usage=FLASHONLY|Rotation=90.000|XOffset=0mm|YOffset=0mm|HoleType=Round|Shape=RoundedRectangle|*
%AMROUNDEDRECTD74*
21,1,2.8000,0.4500,0,0,90.0*
21,1,1.4500,1.8000,0,0,90.0*
1,1,1.3500,0.2250,0.7250*
1,1,1.3500,0.2250,-0.7250*
1,1,1.3500,-0.2250,-0.7250*
1,1,1.3500,-0.2250,0.7250*
%
%ADD74ROUNDEDRECTD74*%
G36*
X00830869Y00534476D02*
X00834022Y00533631D01*
X00837038Y00532382D01*
X00839865Y00530750D01*
X00842454Y00528763D01*
X00844763Y00526454D01*
X00846750Y00523865D01*
X00848382Y00521037D01*
X00849631Y00518022D01*
X00850476Y00514869D01*
X00850902Y00511632D01*
X00850902Y00510000D01*
X00850902Y00030000D01*
Y00028368D01*
X00850476Y00025131D01*
X00849631Y00021978D01*
X00848382Y00018963D01*
X00846750Y00016135D01*
X00844763Y00013546D01*
X00842454Y00011237D01*
X00839865Y00009250D01*
X00837038Y00007618D01*
X00834022Y00006369D01*
X00830869Y00005524D01*
X00827632Y00005098D01*
X00826000D01*
X00155102Y00005098D01*
Y00115000D01*
Y00115995D01*
X00154714Y00117946D01*
X00153952Y00119785D01*
X00153157Y00120975D01*
X00153500Y00121804D01*
Y00123196D01*
X00152967Y00124483D01*
X00151983Y00125467D01*
Y00126533D01*
X00152967Y00127517D01*
X00153500Y00128804D01*
Y00130196D01*
X00152967Y00131483D01*
X00151983Y00132467D01*
Y00133533D01*
X00152967Y00134517D01*
X00153500Y00135804D01*
Y00137196D01*
X00152967Y00138483D01*
X00151983Y00139467D01*
X00151903Y00139500D01*
Y00140500D01*
X00151983Y00140533D01*
X00152967Y00141517D01*
X00153500Y00142804D01*
Y00144196D01*
X00152967Y00145483D01*
X00151983Y00146467D01*
Y00147533D01*
X00152967Y00148517D01*
X00153500Y00149804D01*
Y00151196D01*
X00152967Y00152483D01*
X00151983Y00153467D01*
Y00154533D01*
X00152967Y00155517D01*
X00153500Y00156804D01*
Y00158196D01*
X00153155Y00159029D01*
X00153949Y00160217D01*
X00154710Y00162055D01*
X00155098Y00164005D01*
Y00165000D01*
Y00255000D01*
Y00255994D01*
X00154710Y00257945D01*
X00153949Y00259783D01*
X00153155Y00260971D01*
X00153500Y00261804D01*
Y00263196D01*
X00152967Y00264483D01*
X00151983Y00265467D01*
Y00266533D01*
X00152967Y00267517D01*
X00153500Y00268804D01*
Y00270196D01*
X00152967Y00271483D01*
X00151983Y00272467D01*
Y00273533D01*
X00152967Y00274517D01*
X00153500Y00275804D01*
Y00277196D01*
X00152967Y00278483D01*
X00151983Y00279467D01*
X00151903Y00279500D01*
Y00280500D01*
X00151983Y00280533D01*
X00152967Y00281517D01*
X00153500Y00282804D01*
Y00284196D01*
X00152967Y00285483D01*
X00151983Y00286467D01*
Y00287533D01*
X00152967Y00288517D01*
X00153500Y00289804D01*
Y00291196D01*
X00152967Y00292483D01*
X00151983Y00293467D01*
Y00294533D01*
X00152967Y00295517D01*
X00153500Y00296804D01*
Y00298196D01*
X00153157Y00299025D01*
X00153952Y00300215D01*
X00154714Y00302054D01*
X00155102Y00304005D01*
Y00305000D01*
Y00415000D01*
Y00415995D01*
X00154714Y00417946D01*
X00153952Y00419785D01*
X00152847Y00421439D01*
X00151439Y00422847D01*
X00149785Y00423952D01*
X00147946Y00424714D01*
X00145995Y00425102D01*
X00005098D01*
X00005098Y00534902D01*
X00458523Y00534902D01*
X00458937Y00533902D01*
X00457750Y00532716D01*
X00457143Y00531806D01*
X00456999Y00531086D01*
X00456489Y00530744D01*
X00455494Y00529256D01*
X00455145Y00527500D01*
Y00526926D01*
X00453070Y00526066D01*
X00451242Y00524664D01*
X00449840Y00522836D01*
X00448958Y00520707D01*
X00448657Y00518423D01*
Y00503923D01*
X00448958Y00501639D01*
X00449840Y00499510D01*
X00451242Y00497682D01*
X00453070Y00496280D01*
X00455199Y00495398D01*
X00457483Y00495098D01*
X00461983D01*
X00464267Y00495398D01*
X00466396Y00496280D01*
X00468224Y00497682D01*
X00468696Y00498298D01*
X00469696Y00497959D01*
Y00483346D01*
X00469910Y00482273D01*
X00470517Y00481363D01*
X00478627Y00473254D01*
X00478377Y00472575D01*
X00478163Y00472304D01*
X00393421D01*
X00386337Y00479388D01*
Y00486380D01*
X00386777Y00486675D01*
X00387772Y00488163D01*
X00388121Y00489919D01*
Y00495420D01*
X00390196Y00496280D01*
X00392024Y00497682D01*
X00393426Y00499510D01*
X00394308Y00501639D01*
X00394608Y00503923D01*
Y00518423D01*
X00394308Y00520707D01*
X00393426Y00522836D01*
X00392024Y00524664D01*
X00390196Y00526066D01*
X00388067Y00526948D01*
X00385783Y00527248D01*
X00381283D01*
X00378999Y00526948D01*
X00376870Y00526066D01*
X00375042Y00524664D01*
X00373640Y00522836D01*
X00372758Y00520707D01*
X00372458Y00518423D01*
Y00503923D01*
X00372758Y00501639D01*
X00373640Y00499510D01*
X00375042Y00497682D01*
X00376870Y00496280D01*
X00378945Y00495420D01*
Y00489919D01*
X00379294Y00488163D01*
X00380289Y00486675D01*
X00380729Y00486380D01*
Y00478227D01*
X00380943Y00477154D01*
X00381550Y00476244D01*
X00389991Y00467804D01*
X00389586Y00466804D01*
X00370421D01*
X00360937Y00476288D01*
Y00486380D01*
X00361377Y00486675D01*
X00362372Y00488163D01*
X00362721Y00489919D01*
Y00495420D01*
X00364796Y00496280D01*
X00366624Y00497682D01*
X00368026Y00499510D01*
X00368908Y00501639D01*
X00369208Y00503923D01*
Y00518423D01*
X00368908Y00520707D01*
X00368026Y00522836D01*
X00366624Y00524664D01*
X00364796Y00526066D01*
X00362667Y00526948D01*
X00360383Y00527248D01*
X00355883D01*
X00353599Y00526948D01*
X00351470Y00526066D01*
X00349642Y00524664D01*
X00348240Y00522836D01*
X00347358Y00520707D01*
X00347057Y00518423D01*
Y00503923D01*
X00347358Y00501639D01*
X00348240Y00499510D01*
X00349642Y00497682D01*
X00351470Y00496280D01*
X00353545Y00495420D01*
Y00489919D01*
X00353894Y00488163D01*
X00354889Y00486675D01*
X00355329Y00486380D01*
Y00475127D01*
X00355543Y00474054D01*
X00356150Y00473144D01*
X00367277Y00462017D01*
X00368187Y00461409D01*
X00369260Y00461196D01*
X00474839D01*
X00485017Y00451017D01*
X00485927Y00450410D01*
X00487000Y00450196D01*
X00542339D01*
X00549696Y00442839D01*
Y00427000D01*
X00549910Y00425927D01*
X00550517Y00425017D01*
X00588517Y00387017D01*
X00589427Y00386410D01*
X00590500Y00386196D01*
X00678060D01*
X00706761Y00357496D01*
Y00242726D01*
X00682839Y00218804D01*
X00620161D01*
X00619370Y00219595D01*
X00618750Y00221719D01*
Y00221945D01*
X00618027Y00223691D01*
X00616691Y00225027D01*
X00614945Y00225750D01*
X00613055D01*
X00611309Y00225027D01*
X00609973Y00223691D01*
X00609250Y00221945D01*
Y00220664D01*
X00609015Y00219975D01*
X00608326Y00219740D01*
X00607045D01*
X00605299Y00219016D01*
X00603963Y00217680D01*
X00603240Y00215934D01*
Y00214045D01*
X00603963Y00212299D01*
X00605299Y00210963D01*
X00607045Y00210240D01*
X00607270D01*
X00609395Y00209619D01*
X00610496Y00208517D01*
X00610998Y00208182D01*
X00611232Y00207002D01*
X00610920Y00206691D01*
X00610197Y00204945D01*
Y00203055D01*
X00610920Y00201309D01*
X00612257Y00199973D01*
X00614002Y00199250D01*
X00615892D01*
X00616592Y00198500D01*
X00616362Y00198254D01*
X00615670Y00197750D01*
X00614002D01*
X00612257Y00197027D01*
X00610920Y00195691D01*
X00610197Y00193945D01*
Y00192055D01*
X00610920Y00190309D01*
X00612257Y00188973D01*
X00614002Y00188250D01*
X00615892D01*
X00615964Y00188183D01*
Y00187720D01*
X00614992Y00186750D01*
X00614002D01*
X00612257Y00186027D01*
X00610920Y00184691D01*
X00610197Y00182945D01*
Y00181055D01*
X00610920Y00179309D01*
X00612257Y00177973D01*
X00614002Y00177250D01*
X00615892D01*
X00616197Y00177376D01*
X00617197Y00176708D01*
Y00175555D01*
X00617920Y00173809D01*
X00619257Y00172473D01*
X00621002Y00171750D01*
X00622892D01*
X00624638Y00172473D01*
X00624797Y00172633D01*
X00626738Y00173696D01*
X00700361D01*
X00701434Y00173910D01*
X00702344Y00174517D01*
X00746410Y00218583D01*
X00747410Y00218169D01*
Y00196875D01*
X00717839Y00167304D01*
X00619791D01*
X00617850Y00168367D01*
X00617691Y00168527D01*
X00615945Y00169250D01*
X00614055D01*
X00612309Y00168527D01*
X00610973Y00167191D01*
X00610250Y00165445D01*
Y00163555D01*
X00610973Y00161809D01*
X00612309Y00160473D01*
X00614055Y00159750D01*
X00615945D01*
X00616644Y00159000D01*
X00616415Y00158754D01*
X00615723Y00158250D01*
X00614055D01*
X00612309Y00157527D01*
X00610973Y00156191D01*
X00610250Y00154445D01*
Y00152555D01*
X00610973Y00150809D01*
X00612309Y00149473D01*
X00614055Y00148750D01*
X00615945D01*
X00616017Y00148683D01*
Y00148220D01*
X00615045Y00147250D01*
X00614055D01*
X00612309Y00146527D01*
X00610973Y00145191D01*
X00610250Y00143445D01*
Y00141555D01*
X00610973Y00139809D01*
X00612309Y00138473D01*
X00614055Y00137750D01*
X00615945D01*
X00616644Y00137000D01*
X00616415Y00136754D01*
X00615723Y00136250D01*
X00614055D01*
X00612309Y00135527D01*
X00610973Y00134191D01*
X00610250Y00132445D01*
Y00130555D01*
X00610973Y00128809D01*
X00612309Y00127473D01*
X00614055Y00126750D01*
X00615945D01*
X00616644Y00126000D01*
X00616415Y00125754D01*
X00615723Y00125250D01*
X00614055D01*
X00612309Y00124527D01*
X00610973Y00123191D01*
X00610250Y00121445D01*
Y00120129D01*
X00609250Y00119715D01*
X00608483Y00120483D01*
X00607573Y00121090D01*
X00606500Y00121304D01*
X00407751Y00121304D01*
X00406063Y00122155D01*
X00405691Y00122527D01*
X00403945Y00123250D01*
X00402055D01*
X00400309Y00122527D01*
X00398973Y00121191D01*
X00398250Y00119445D01*
Y00117555D01*
X00398561Y00116804D01*
X00397893Y00115804D01*
X00394751D01*
X00393063Y00116655D01*
X00392691Y00117027D01*
X00390945Y00117750D01*
X00389055D01*
X00387309Y00117027D01*
X00385973Y00115691D01*
X00385250Y00113945D01*
Y00112055D01*
X00385561Y00111304D01*
X00384893Y00110304D01*
X00383921D01*
X00380180Y00114045D01*
X00379270Y00114653D01*
X00378197Y00114867D01*
X00293563D01*
X00292490Y00114653D01*
X00291580Y00114045D01*
X00286377Y00108842D01*
X00284581Y00108250D01*
X00284055D01*
X00282309Y00107527D01*
X00280973Y00106191D01*
X00280250Y00104445D01*
Y00102555D01*
X00280973Y00100809D01*
X00282309Y00099473D01*
X00284055Y00098750D01*
X00285945D01*
X00287691Y00099473D01*
X00289027Y00100809D01*
X00289750Y00102555D01*
Y00103081D01*
X00290342Y00104877D01*
X00294724Y00109259D01*
X00338235D01*
X00338618Y00108335D01*
X00338473Y00108191D01*
X00337750Y00106445D01*
Y00104555D01*
X00338065Y00103794D01*
X00337217Y00103228D01*
X00334963Y00105483D01*
X00334053Y00106090D01*
X00332980Y00106304D01*
X00314751D01*
X00313063Y00107155D01*
X00312691Y00107527D01*
X00310945Y00108250D01*
X00309055D01*
X00307309Y00107527D01*
X00305973Y00106191D01*
X00305250Y00104445D01*
Y00102555D01*
X00305973Y00100809D01*
X00307309Y00099473D01*
X00309055Y00098750D01*
X00310945D01*
X00312691Y00099473D01*
X00313063Y00099845D01*
X00314751Y00100696D01*
X00331819D01*
X00334287Y00098228D01*
X00333904Y00097304D01*
X00278661D01*
X00273842Y00102123D01*
X00273250Y00103919D01*
Y00104445D01*
X00272527Y00106191D01*
X00271191Y00107527D01*
X00269445Y00108250D01*
X00267555D01*
X00265809Y00107527D01*
X00264473Y00106191D01*
X00263750Y00104445D01*
Y00102555D01*
X00264473Y00100809D01*
X00265809Y00099473D01*
X00267555Y00098750D01*
X00268081D01*
X00269877Y00098158D01*
X00274731Y00093304D01*
X00274317Y00092304D01*
X00270161D01*
X00260342Y00102123D01*
X00259750Y00103919D01*
Y00104445D01*
X00259027Y00106191D01*
X00257691Y00107527D01*
X00255945Y00108250D01*
X00254055D01*
X00252309Y00107527D01*
X00250973Y00106191D01*
X00250250Y00104445D01*
Y00102555D01*
X00250973Y00100809D01*
X00252309Y00099473D01*
X00254055Y00098750D01*
X00254581D01*
X00256377Y00098158D01*
X00267017Y00087517D01*
X00267927Y00086910D01*
X00269000Y00086696D01*
X00352031D01*
X00360710Y00078017D01*
X00361620Y00077410D01*
X00362693Y00077196D01*
X00589391D01*
X00596570Y00070017D01*
X00597480Y00069410D01*
X00598553Y00069196D01*
X00638947D01*
X00640020Y00069410D01*
X00640930Y00070017D01*
X00644609Y00073696D01*
X00663519D01*
X00663718Y00072696D01*
X00663309Y00072527D01*
X00661973Y00071191D01*
X00661250Y00069445D01*
Y00067555D01*
X00661973Y00065809D01*
X00663309Y00064473D01*
X00663749Y00064291D01*
Y00063209D01*
X00663309Y00063027D01*
X00661973Y00061691D01*
X00661250Y00059945D01*
Y00058055D01*
X00661973Y00056309D01*
X00663309Y00054973D01*
X00665055Y00054250D01*
X00666945D01*
X00668691Y00054973D01*
X00668850Y00055133D01*
X00670791Y00056196D01*
X00679839D01*
X00687517Y00048517D01*
X00688427Y00047910D01*
X00689500Y00047696D01*
X00741087D01*
X00742160Y00047910D01*
X00743070Y00048517D01*
X00751249Y00056696D01*
X00762209D01*
X00764150Y00055633D01*
X00764309Y00055473D01*
X00766055Y00054750D01*
X00767945D01*
X00769691Y00055473D01*
X00771027Y00056809D01*
X00771750Y00058555D01*
Y00059236D01*
X00772750Y00059743D01*
X00773249Y00059410D01*
X00774322Y00059196D01*
X00787709D01*
X00789650Y00058133D01*
X00789809Y00057973D01*
X00791555Y00057250D01*
X00793445D01*
X00795191Y00057973D01*
X00796527Y00059309D01*
X00797250Y00061055D01*
Y00062945D01*
X00796527Y00064691D01*
X00795191Y00066027D01*
X00793445Y00066750D01*
X00791555D01*
X00789809Y00066027D01*
X00789650Y00065867D01*
X00787709Y00064804D01*
X00775483D01*
X00771795Y00068492D01*
X00770885Y00069100D01*
X00769812Y00069314D01*
X00748140D01*
X00747903Y00069622D01*
X00747680Y00070268D01*
X00761483Y00084070D01*
X00762091Y00084980D01*
X00762304Y00086053D01*
Y00109209D01*
X00763367Y00111150D01*
X00763527Y00111309D01*
X00764250Y00113055D01*
Y00114945D01*
X00763527Y00116691D01*
X00763445Y00116772D01*
X00763828Y00117696D01*
X00769839D01*
X00773017Y00114517D01*
X00773927Y00113910D01*
X00775000Y00113696D01*
X00776297D01*
X00778238Y00112633D01*
X00778397Y00112473D01*
X00780143Y00111750D01*
X00782032D01*
X00783778Y00112473D01*
X00785115Y00113809D01*
X00785838Y00115555D01*
Y00117445D01*
X00785115Y00119191D01*
X00783778Y00120527D01*
X00782032Y00121250D01*
X00780143D01*
X00778397Y00120527D01*
X00778238Y00120367D01*
X00776297Y00119304D01*
X00776161D01*
X00772983Y00122483D01*
X00772073Y00123090D01*
X00771000Y00123304D01*
X00737622D01*
X00737216Y00124304D01*
X00790696Y00177784D01*
X00791304Y00178693D01*
X00791517Y00179766D01*
Y00453901D01*
X00791980Y00454745D01*
X00792014Y00454750D01*
X00793445D01*
X00795191Y00455473D01*
X00796527Y00456809D01*
X00797250Y00458555D01*
Y00460445D01*
X00796527Y00462191D01*
X00795191Y00463527D01*
X00793445Y00464250D01*
X00791555D01*
X00789809Y00463527D01*
X00788473Y00462191D01*
X00788301Y00461776D01*
X00787017Y00459894D01*
X00786017Y00460202D01*
Y00467730D01*
X00791484Y00473196D01*
X00799500D01*
X00800573Y00473410D01*
X00801483Y00474017D01*
X00807156Y00479690D01*
X00807763Y00480600D01*
X00807977Y00481673D01*
Y00486380D01*
X00808417Y00486675D01*
X00809412Y00488163D01*
X00809761Y00489919D01*
Y00495420D01*
X00811836Y00496280D01*
X00813664Y00497682D01*
X00815066Y00499510D01*
X00815948Y00501639D01*
X00816248Y00503923D01*
Y00518423D01*
X00815948Y00520707D01*
X00815066Y00522836D01*
X00813664Y00524664D01*
X00811836Y00526066D01*
X00809707Y00526948D01*
X00807423Y00527248D01*
X00802923D01*
X00800639Y00526948D01*
X00798510Y00526066D01*
X00796683Y00524664D01*
X00795280Y00522836D01*
X00794398Y00520707D01*
X00794098Y00518423D01*
Y00503923D01*
X00794398Y00501639D01*
X00795280Y00499510D01*
X00796683Y00497682D01*
X00798510Y00496280D01*
X00800585Y00495420D01*
Y00489919D01*
X00800934Y00488163D01*
X00801929Y00486675D01*
X00802369Y00486380D01*
Y00482834D01*
X00798339Y00478804D01*
X00790322D01*
X00789249Y00478590D01*
X00788340Y00477983D01*
X00781231Y00470874D01*
X00780623Y00469964D01*
X00780409Y00468891D01*
Y00445965D01*
X00779409Y00445559D01*
X00757177Y00467792D01*
X00757177Y00486380D01*
X00757617Y00486675D01*
X00758612Y00488163D01*
X00758961Y00489919D01*
Y00495420D01*
X00761036Y00496280D01*
X00762864Y00497682D01*
X00764266Y00499510D01*
X00765148Y00501639D01*
X00765449Y00503923D01*
Y00518423D01*
X00765148Y00520707D01*
X00764266Y00522836D01*
X00762864Y00524664D01*
X00761036Y00526066D01*
X00758907Y00526948D01*
X00756623Y00527248D01*
X00752123D01*
X00749839Y00526948D01*
X00747710Y00526066D01*
X00745882Y00524664D01*
X00744480Y00522836D01*
X00743598Y00520707D01*
X00743298Y00518423D01*
Y00503923D01*
X00743598Y00501639D01*
X00744480Y00499510D01*
X00745882Y00497682D01*
X00747710Y00496280D01*
X00749785Y00495420D01*
Y00489919D01*
X00750134Y00488163D01*
X00751129Y00486675D01*
X00751569Y00486380D01*
X00751569Y00466631D01*
X00751621Y00466371D01*
X00750699Y00465879D01*
X00731777Y00484801D01*
Y00486380D01*
X00732217Y00486675D01*
X00733212Y00488163D01*
X00733561Y00489919D01*
Y00495420D01*
X00735636Y00496280D01*
X00737464Y00497682D01*
X00738866Y00499510D01*
X00739748Y00501639D01*
X00740049Y00503923D01*
Y00518423D01*
X00739748Y00520707D01*
X00738866Y00522836D01*
X00737464Y00524664D01*
X00735636Y00526066D01*
X00733507Y00526948D01*
X00731223Y00527248D01*
X00726723D01*
X00724439Y00526948D01*
X00722310Y00526066D01*
X00720482Y00524664D01*
X00719080Y00522836D01*
X00718198Y00520707D01*
X00717897Y00518423D01*
Y00503923D01*
X00718198Y00501639D01*
X00719080Y00499510D01*
X00720482Y00497682D01*
X00722310Y00496280D01*
X00724385Y00495420D01*
Y00489919D01*
X00724734Y00488163D01*
X00725729Y00486675D01*
X00726169Y00486380D01*
Y00483784D01*
X00725750Y00483403D01*
X00725253Y00483121D01*
X00724334Y00483304D01*
X00708161D01*
X00706377Y00485088D01*
Y00486380D01*
X00706817Y00486675D01*
X00707812Y00488163D01*
X00708161Y00489919D01*
Y00495420D01*
X00710236Y00496280D01*
X00712064Y00497682D01*
X00713466Y00499510D01*
X00714348Y00501639D01*
X00714649Y00503923D01*
Y00518423D01*
X00714348Y00520707D01*
X00713466Y00522836D01*
X00712064Y00524664D01*
X00710236Y00526066D01*
X00708107Y00526948D01*
X00705823Y00527248D01*
X00701323D01*
X00699039Y00526948D01*
X00696910Y00526066D01*
X00695082Y00524664D01*
X00693680Y00522836D01*
X00692798Y00520707D01*
X00692497Y00518423D01*
Y00503923D01*
X00692798Y00501639D01*
X00693680Y00499510D01*
X00695082Y00497682D01*
X00696910Y00496280D01*
X00698985Y00495420D01*
Y00489919D01*
X00699334Y00488163D01*
X00700329Y00486675D01*
X00700769Y00486380D01*
Y00483927D01*
X00700983Y00482854D01*
X00701590Y00481944D01*
X00704731Y00478804D01*
X00704326Y00477804D01*
X00686661D01*
X00680977Y00483488D01*
Y00486380D01*
X00681417Y00486675D01*
X00682412Y00488163D01*
X00682761Y00489919D01*
Y00495420D01*
X00684836Y00496280D01*
X00686664Y00497682D01*
X00688066Y00499510D01*
X00688948Y00501639D01*
X00689249Y00503923D01*
Y00518423D01*
X00688948Y00520707D01*
X00688066Y00522836D01*
X00686664Y00524664D01*
X00684836Y00526066D01*
X00682707Y00526948D01*
X00680423Y00527248D01*
X00675923D01*
X00673639Y00526948D01*
X00671510Y00526066D01*
X00669682Y00524664D01*
X00668280Y00522836D01*
X00667398Y00520707D01*
X00667097Y00518423D01*
Y00503923D01*
X00667398Y00501639D01*
X00668280Y00499510D01*
X00669682Y00497682D01*
X00671510Y00496280D01*
X00673585Y00495420D01*
Y00489919D01*
X00673934Y00488163D01*
X00674929Y00486675D01*
X00675369Y00486380D01*
Y00482327D01*
X00675583Y00481254D01*
X00676190Y00480344D01*
X00683231Y00473304D01*
X00682826Y00472304D01*
X00662661D01*
X00655577Y00479388D01*
Y00486380D01*
X00656017Y00486675D01*
X00657012Y00488163D01*
X00657361Y00489919D01*
Y00495420D01*
X00659436Y00496280D01*
X00661264Y00497682D01*
X00662666Y00499510D01*
X00663548Y00501639D01*
X00663848Y00503923D01*
Y00518423D01*
X00663548Y00520707D01*
X00662666Y00522836D01*
X00661264Y00524664D01*
X00659436Y00526066D01*
X00657307Y00526948D01*
X00655023Y00527248D01*
X00650523D01*
X00648239Y00526948D01*
X00646110Y00526066D01*
X00644283Y00524664D01*
X00642880Y00522836D01*
X00641998Y00520707D01*
X00641697Y00518423D01*
Y00503923D01*
X00641998Y00501639D01*
X00642880Y00499510D01*
X00644283Y00497682D01*
X00646110Y00496280D01*
X00648185Y00495420D01*
Y00489919D01*
X00648534Y00488163D01*
X00649529Y00486675D01*
X00649969Y00486380D01*
Y00478227D01*
X00650183Y00477154D01*
X00650790Y00476244D01*
X00659231Y00467804D01*
X00658826Y00466804D01*
X00639661D01*
X00630177Y00476288D01*
Y00486380D01*
X00630617Y00486675D01*
X00631612Y00488163D01*
X00631961Y00489919D01*
Y00495420D01*
X00634036Y00496280D01*
X00635864Y00497682D01*
X00637266Y00499510D01*
X00638148Y00501639D01*
X00638448Y00503923D01*
Y00518423D01*
X00638148Y00520707D01*
X00637266Y00522836D01*
X00635864Y00524664D01*
X00634036Y00526066D01*
X00631907Y00526948D01*
X00629623Y00527248D01*
X00625123D01*
X00622839Y00526948D01*
X00620710Y00526066D01*
X00618882Y00524664D01*
X00617480Y00522836D01*
X00616598Y00520707D01*
X00616297Y00518423D01*
Y00503923D01*
X00616598Y00501639D01*
X00617480Y00499510D01*
X00618882Y00497682D01*
X00620710Y00496280D01*
X00622785Y00495420D01*
Y00489919D01*
X00623134Y00488163D01*
X00624129Y00486675D01*
X00624569Y00486380D01*
Y00475127D01*
X00624783Y00474054D01*
X00625390Y00473144D01*
X00636517Y00462017D01*
X00637427Y00461409D01*
X00638500Y00461196D01*
X00716339D01*
X00747410Y00430125D01*
Y00380861D01*
X00746410Y00380447D01*
X00697374Y00429483D01*
X00696464Y00430090D01*
X00695391Y00430304D01*
X00608661D01*
X00594807Y00444158D01*
Y00462357D01*
X00594594Y00463430D01*
X00593986Y00464339D01*
X00589537Y00468788D01*
X00589537Y00486380D01*
X00589977Y00486675D01*
X00590972Y00488163D01*
X00591321Y00489919D01*
Y00495420D01*
X00593396Y00496280D01*
X00595224Y00497682D01*
X00596626Y00499510D01*
X00597508Y00501639D01*
X00597808Y00503923D01*
Y00518423D01*
X00597508Y00520707D01*
X00596626Y00522836D01*
X00595224Y00524664D01*
X00593396Y00526066D01*
X00591267Y00526948D01*
X00588983Y00527248D01*
X00584483D01*
X00582199Y00526948D01*
X00580070Y00526066D01*
X00578242Y00524664D01*
X00576840Y00522836D01*
X00575958Y00520707D01*
X00575658Y00518423D01*
Y00503923D01*
X00575958Y00501639D01*
X00576840Y00499510D01*
X00578242Y00497682D01*
X00580070Y00496280D01*
X00582145Y00495420D01*
Y00489919D01*
X00582494Y00488163D01*
X00583489Y00486675D01*
X00583929Y00486380D01*
X00583929Y00467627D01*
X00584143Y00466554D01*
X00584750Y00465644D01*
X00588468Y00461926D01*
X00588461Y00461891D01*
X00587374Y00461564D01*
X00564137Y00484801D01*
Y00486380D01*
X00564577Y00486675D01*
X00565572Y00488163D01*
X00565921Y00489919D01*
Y00495420D01*
X00567996Y00496280D01*
X00569824Y00497682D01*
X00571226Y00499510D01*
X00572108Y00501639D01*
X00572408Y00503923D01*
Y00518423D01*
X00572108Y00520707D01*
X00571226Y00522836D01*
X00569824Y00524664D01*
X00567996Y00526066D01*
X00565867Y00526948D01*
X00563583Y00527248D01*
X00559083D01*
X00556799Y00526948D01*
X00554670Y00526066D01*
X00552842Y00524664D01*
X00552304Y00523962D01*
X00551304Y00524301D01*
Y00526500D01*
X00551090Y00527573D01*
X00550483Y00528483D01*
X00545063Y00533902D01*
X00545477Y00534902D01*
X00826000Y00534902D01*
X00827632D01*
X00830869Y00534476D01*
D02*
G37*
G36*
X00792085Y00456782D02*
X00789244Y00456928D01*
X00788193Y00457998D01*
X00790003Y00460651D01*
X00792085Y00456782D01*
D02*
G37*
G36*
X00617568Y00218493D02*
X00616507Y00217432D01*
X00613613Y00218277D01*
X00616723Y00221387D01*
X00617568Y00218493D01*
D02*
G37*
G36*
X00611558Y00212482D02*
X00610497Y00211422D01*
X00607602Y00212267D01*
X00610712Y00215377D01*
X00611558Y00212482D01*
D02*
G37*
G36*
X00619243Y00204750D02*
Y00203250D01*
X00616599Y00201801D01*
Y00206199D01*
X00619243Y00204750D01*
D02*
G37*
G36*
X00626243Y00199250D02*
Y00197750D01*
X00623599Y00196301D01*
Y00200699D01*
X00626243Y00199250D01*
D02*
G37*
G36*
X00619243Y00193750D02*
Y00192250D01*
X00616599Y00190801D01*
Y00195199D01*
X00619243Y00193750D01*
D02*
G37*
G36*
X00625743Y00188250D02*
Y00186750D01*
X00623099Y00185301D01*
Y00189699D01*
X00625743Y00188250D01*
D02*
G37*
G36*
X00619243Y00182750D02*
Y00181250D01*
X00616599Y00179801D01*
Y00184199D01*
X00619243Y00182750D01*
D02*
G37*
G36*
X00626243Y00177250D02*
X00626243Y00175750D01*
X00623599Y00174301D01*
X00623599Y00178699D01*
X00626243Y00177250D01*
D02*
G37*
G36*
X00619296Y00165250D02*
Y00163750D01*
X00616651Y00162301D01*
Y00166699D01*
X00619296Y00165250D01*
D02*
G37*
G36*
X00626296Y00159750D02*
Y00158250D01*
X00623651Y00156801D01*
Y00161199D01*
X00626296Y00159750D01*
D02*
G37*
G36*
X00619296Y00154250D02*
Y00152750D01*
X00616651Y00151301D01*
Y00155699D01*
X00619296Y00154250D01*
D02*
G37*
G36*
X00625796Y00148750D02*
Y00147250D01*
X00623151Y00145801D01*
Y00150199D01*
X00625796Y00148750D01*
D02*
G37*
G36*
X00619296Y00143250D02*
Y00141750D01*
X00616651Y00140301D01*
Y00144699D01*
X00619296Y00143250D01*
D02*
G37*
G36*
X00626296Y00137750D02*
X00626296Y00136250D01*
X00623651Y00134801D01*
X00623651Y00139199D01*
X00626296Y00137750D01*
D02*
G37*
G36*
X00619296Y00132250D02*
Y00130750D01*
X00616651Y00129301D01*
Y00133699D01*
X00619296Y00132250D01*
D02*
G37*
G36*
X00626296Y00126750D02*
Y00125250D01*
X00623651Y00123801D01*
Y00128199D01*
X00626296Y00126750D01*
D02*
G37*
G36*
X00619296Y00121250D02*
Y00119750D01*
X00616651Y00118301D01*
Y00122699D01*
X00619296Y00121250D01*
D02*
G37*
G36*
X00407296Y00119250D02*
X00407296Y00117750D01*
X00404964Y00116575D01*
X00404964Y00120425D01*
X00407296Y00119250D01*
D02*
G37*
G36*
X00779436Y00114301D02*
X00776792Y00115750D01*
Y00117250D01*
X00779436Y00118699D01*
Y00114301D01*
D02*
G37*
G36*
X00394296Y00113750D02*
X00394296Y00112250D01*
X00391964Y00111075D01*
X00391964Y00114925D01*
X00394296Y00113750D01*
D02*
G37*
G36*
X00738250Y00109704D02*
X00736750Y00109704D01*
X00735301Y00112349D01*
X00739699Y00112349D01*
X00738250Y00109704D01*
D02*
G37*
G36*
X00727250D02*
X00725750Y00109704D01*
X00724301Y00112349D01*
X00728699Y00112349D01*
X00727250Y00109704D01*
D02*
G37*
G36*
X00760250D02*
X00758750Y00109704D01*
X00757301Y00112349D01*
X00761699Y00112349D01*
X00760250Y00109704D01*
D02*
G37*
G36*
X00749250D02*
X00747750Y00109704D01*
X00746301Y00112349D01*
X00750699Y00112349D01*
X00749250Y00109704D01*
D02*
G37*
G36*
X00346796Y00106250D02*
Y00104750D01*
X00344464Y00103575D01*
Y00107425D01*
X00346796Y00106250D01*
D02*
G37*
G36*
X00371296Y00106250D02*
Y00104750D01*
X00368964Y00103575D01*
Y00107425D01*
X00371296Y00106250D01*
D02*
G37*
G36*
X00288568Y00106007D02*
X00287750Y00103527D01*
X00285028Y00106250D01*
X00287507Y00107068D01*
X00288568Y00106007D01*
D02*
G37*
G36*
X00732750Y00102704D02*
X00731250Y00102704D01*
X00729801Y00105349D01*
X00734199Y00105349D01*
X00732750Y00102704D01*
D02*
G37*
G36*
X00721750Y00102704D02*
X00720250D01*
X00718801Y00105349D01*
X00723199D01*
X00721750Y00102704D01*
D02*
G37*
G36*
X00754750Y00102704D02*
X00753250Y00102704D01*
X00751801Y00105349D01*
X00756199Y00105349D01*
X00754750Y00102704D01*
D02*
G37*
G36*
X00743750Y00102704D02*
X00742250Y00102704D01*
X00740801Y00105349D01*
X00745199Y00105349D01*
X00743750Y00102704D01*
D02*
G37*
G36*
X00722555Y00116772D02*
X00722473Y00116691D01*
X00721750Y00114945D01*
Y00113055D01*
X00721877Y00112750D01*
X00721208Y00111750D01*
X00720055D01*
X00718309Y00111027D01*
X00716973Y00109691D01*
X00716250Y00107945D01*
Y00106055D01*
X00716973Y00104309D01*
X00717133Y00104150D01*
X00717859Y00102824D01*
X00716839Y00101804D01*
X00712161D01*
X00697269Y00116696D01*
X00697674Y00117696D01*
X00722172D01*
X00722555Y00116772D01*
D02*
G37*
G36*
X00314296Y00104250D02*
Y00102750D01*
X00311964Y00101575D01*
Y00105425D01*
X00314296Y00104250D01*
D02*
G37*
G36*
X00258568Y00100993D02*
X00257507Y00099932D01*
X00255028Y00100750D01*
X00257750Y00103472D01*
X00258568Y00100993D01*
D02*
G37*
G36*
X00272068Y00100993D02*
X00271007Y00099932D01*
X00268528Y00100750D01*
X00271250Y00103472D01*
X00272068Y00100993D01*
D02*
G37*
G36*
X00670296Y00069250D02*
Y00067750D01*
X00667651Y00066301D01*
Y00070699D01*
X00670296Y00069250D01*
D02*
G37*
G36*
X00790849Y00059801D02*
X00788204Y00061250D01*
Y00062750D01*
X00790849Y00064199D01*
Y00059801D01*
D02*
G37*
G36*
X00765349Y00057301D02*
X00762704Y00058750D01*
Y00060250D01*
X00765349Y00061699D01*
Y00057301D01*
D02*
G37*
G36*
X00670296Y00059750D02*
Y00058250D01*
X00667651Y00056801D01*
Y00061199D01*
X00670296Y00059750D01*
D02*
G37*
G36*
X00134898Y00305000D02*
Y00304005D01*
X00135286Y00302054D01*
X00135286Y00302054D01*
X00136048Y00300215D01*
X00136048Y00300215D01*
Y00300215D01*
X00137153Y00298561D01*
X00138561Y00297153D01*
X00138561D01*
Y00297153D01*
X00140000Y00296192D01*
Y00263804D01*
X00138563Y00262844D01*
X00137156Y00261437D01*
X00137156Y00261437D01*
X00136051Y00259783D01*
X00135290Y00257945D01*
X00135031Y00256642D01*
X00134902Y00255994D01*
Y00255000D01*
X00134902Y00255000D01*
X00134902Y00165000D01*
Y00164005D01*
X00135056Y00163229D01*
X00135290Y00162055D01*
X00136051Y00160217D01*
X00137156Y00158563D01*
X00137156Y00158563D01*
X00138563Y00157156D01*
X00138563Y00157156D01*
X00140000Y00156196D01*
Y00123808D01*
X00138561Y00122847D01*
X00137153Y00121439D01*
Y00121439D01*
X00137153D01*
X00136048Y00119785D01*
X00135286Y00117946D01*
X00134975Y00116383D01*
X00134898Y00115995D01*
Y00115000D01*
Y00005098D01*
X00028368D01*
X00025131Y00005524D01*
X00021978Y00006369D01*
X00018963Y00007618D01*
X00016135Y00009250D01*
X00013546Y00011237D01*
X00011237Y00013546D01*
X00009250Y00016135D01*
X00007618Y00018962D01*
X00006369Y00021978D01*
X00005524Y00025131D01*
X00005098Y00028368D01*
X00005098Y00030000D01*
X00005098Y00404898D01*
X00134898D01*
Y00305000D01*
D02*
G37*
%LPC*%
G36*
X00436833Y00528224D02*
Y00513673D01*
X00446417D01*
Y00518423D01*
X00446082Y00520968D01*
X00445100Y00523340D01*
X00443537Y00525377D01*
X00441500Y00526940D01*
X00439128Y00527922D01*
X00436833Y00528224D01*
D02*
G37*
G36*
X00431833D02*
X00429538Y00527922D01*
X00427166Y00526940D01*
X00425129Y00525377D01*
X00423566Y00523340D01*
X00422584Y00520968D01*
X00422249Y00518423D01*
Y00513673D01*
X00431833D01*
Y00528224D01*
D02*
G37*
G36*
X00782023Y00527248D02*
X00777523D01*
X00775239Y00526948D01*
X00773110Y00526066D01*
X00771283Y00524664D01*
X00769880Y00522836D01*
X00768998Y00520707D01*
X00768698Y00518423D01*
Y00503923D01*
X00768998Y00501639D01*
X00769880Y00499510D01*
X00771283Y00497682D01*
X00773110Y00496280D01*
X00775239Y00495398D01*
X00777523Y00495098D01*
X00782023D01*
X00784307Y00495398D01*
X00786436Y00496280D01*
X00788264Y00497682D01*
X00789666Y00499510D01*
X00790548Y00501639D01*
X00790848Y00503923D01*
Y00518423D01*
X00790548Y00520707D01*
X00789666Y00522836D01*
X00788264Y00524664D01*
X00786436Y00526066D01*
X00784307Y00526948D01*
X00782023Y00527248D01*
D02*
G37*
G36*
X00411183D02*
X00406683D01*
X00404399Y00526948D01*
X00402270Y00526066D01*
X00400443Y00524664D01*
X00399040Y00522836D01*
X00398158Y00520707D01*
X00397858Y00518423D01*
Y00503923D01*
X00398158Y00501639D01*
X00399040Y00499510D01*
X00400443Y00497682D01*
X00402270Y00496280D01*
X00404399Y00495398D01*
X00406683Y00495098D01*
X00411183D01*
X00413467Y00495398D01*
X00415596Y00496280D01*
X00417424Y00497682D01*
X00418826Y00499510D01*
X00419708Y00501639D01*
X00420009Y00503923D01*
Y00518423D01*
X00419708Y00520707D01*
X00418826Y00522836D01*
X00417424Y00524664D01*
X00415596Y00526066D01*
X00413467Y00526948D01*
X00411183Y00527248D01*
D02*
G37*
G36*
X00446417Y00508673D02*
X00436833D01*
Y00494122D01*
X00439128Y00494424D01*
X00441500Y00495406D01*
X00443537Y00496969D01*
X00445100Y00499006D01*
X00446082Y00501378D01*
X00446417Y00503923D01*
Y00508673D01*
D02*
G37*
G36*
X00431833D02*
X00422249D01*
Y00503923D01*
X00422584Y00501378D01*
X00423566Y00499006D01*
X00425129Y00496969D01*
X00427166Y00495406D01*
X00429538Y00494424D01*
X00431833Y00494122D01*
Y00508673D01*
D02*
G37*
G36*
X00182889Y00502700D02*
X00181111D01*
X00179395Y00502240D01*
X00177855Y00501351D01*
X00176599Y00500094D01*
X00175710Y00498555D01*
X00175250Y00496838D01*
Y00495061D01*
X00175710Y00493344D01*
X00175738Y00493296D01*
X00172375Y00489934D01*
X00171413Y00488680D01*
X00171163Y00488076D01*
X00170809Y00487221D01*
X00170602Y00485654D01*
Y00461421D01*
X00170809Y00459855D01*
X00171163Y00459000D01*
X00171413Y00458395D01*
X00172375Y00457142D01*
X00205796Y00423721D01*
X00207050Y00422759D01*
X00208509Y00422155D01*
X00210075Y00421948D01*
X00308196D01*
X00308210Y00421895D01*
X00309099Y00420355D01*
X00310355Y00419099D01*
X00311895Y00418210D01*
X00313611Y00417750D01*
X00315389D01*
X00317105Y00418210D01*
X00318645Y00419099D01*
X00319901Y00420355D01*
X00320790Y00421895D01*
X00321250Y00423611D01*
Y00425389D01*
X00320790Y00427105D01*
X00319901Y00428645D01*
X00318645Y00429901D01*
X00318257Y00430125D01*
Y00431125D01*
X00318645Y00431349D01*
X00319901Y00432605D01*
X00320790Y00434145D01*
X00321250Y00435861D01*
Y00437639D01*
X00320790Y00439355D01*
X00319901Y00440895D01*
X00318645Y00442151D01*
X00317105Y00443040D01*
X00315389Y00443500D01*
X00313611D01*
X00311895Y00443040D01*
X00310355Y00442151D01*
X00309099Y00440895D01*
X00308210Y00439355D01*
X00308196Y00439302D01*
X00214757D01*
X00187956Y00466102D01*
Y00479989D01*
X00188956Y00480757D01*
X00189773Y00480538D01*
X00191551D01*
X00193267Y00480998D01*
X00194807Y00481886D01*
X00196063Y00483143D01*
X00196952Y00484682D01*
X00197412Y00486399D01*
Y00488176D01*
X00196952Y00489893D01*
X00196063Y00491432D01*
X00194807Y00492689D01*
X00193267Y00493578D01*
X00191551Y00494038D01*
X00189773D01*
X00189341Y00493922D01*
X00188634Y00494629D01*
X00188750Y00495061D01*
Y00496838D01*
X00188290Y00498555D01*
X00187401Y00500094D01*
X00186145Y00501351D01*
X00184605Y00502240D01*
X00182889Y00502700D01*
D02*
G37*
G36*
X00446445Y00404250D02*
X00444555D01*
X00442809Y00403527D01*
X00441473Y00402191D01*
X00440750Y00400445D01*
Y00398555D01*
X00441473Y00396809D01*
X00442809Y00395473D01*
X00444555Y00394750D01*
X00446445D01*
X00448191Y00395473D01*
X00448563Y00395845D01*
X00450251Y00396696D01*
X00533553D01*
X00569732Y00360517D01*
X00570642Y00359910D01*
X00571715Y00359696D01*
X00617295D01*
X00628586Y00348405D01*
X00629207Y00346281D01*
Y00346055D01*
X00629930Y00344309D01*
X00631266Y00342973D01*
X00633012Y00342250D01*
X00634901D01*
X00636647Y00342973D01*
X00636807Y00343133D01*
X00638748Y00344196D01*
X00694709D01*
X00696650Y00343133D01*
X00696809Y00342973D01*
X00698555Y00342250D01*
X00700445D01*
X00702191Y00342973D01*
X00703527Y00344309D01*
X00704250Y00346055D01*
Y00347945D01*
X00703527Y00349691D01*
X00702191Y00351027D01*
X00700445Y00351750D01*
X00698555D01*
X00696809Y00351027D01*
X00696650Y00350867D01*
X00694709Y00349804D01*
X00638748D01*
X00636807Y00350867D01*
X00636647Y00351027D01*
X00634901Y00351750D01*
X00634676D01*
X00632551Y00352370D01*
X00620439Y00364483D01*
X00619530Y00365090D01*
X00618457Y00365304D01*
X00572876D01*
X00536697Y00401483D01*
X00535788Y00402090D01*
X00534715Y00402304D01*
X00450251D01*
X00448563Y00403155D01*
X00448191Y00403527D01*
X00446445Y00404250D01*
D02*
G37*
G36*
X00410945Y00346750D02*
X00409055D01*
X00407309Y00346027D01*
X00405973Y00344691D01*
X00405250Y00342945D01*
Y00342297D01*
X00396522Y00333569D01*
X00374649D01*
X00374191Y00334027D01*
X00372445Y00334750D01*
X00370555D01*
X00368809Y00334027D01*
X00367473Y00332691D01*
X00366750Y00330945D01*
Y00329055D01*
X00367473Y00327309D01*
X00368809Y00325973D01*
X00370555Y00325250D01*
X00372445D01*
X00374191Y00325973D01*
X00374649Y00326431D01*
X00398000D01*
X00399366Y00326703D01*
X00400523Y00327477D01*
X00410297Y00337250D01*
X00410945D01*
X00412691Y00337973D01*
X00414027Y00339309D01*
X00414750Y00341055D01*
Y00342945D01*
X00414027Y00344691D01*
X00412691Y00346027D01*
X00410945Y00346750D01*
D02*
G37*
G36*
X00811443Y00318025D02*
X00801443D01*
X00799877Y00317819D01*
X00798417Y00317214D01*
X00797164Y00316252D01*
X00796202Y00314999D01*
X00795598Y00313539D01*
X00795391Y00311973D01*
Y00303973D01*
X00795598Y00302407D01*
X00796202Y00300947D01*
X00797164Y00299694D01*
X00798417Y00298732D01*
X00799877Y00298127D01*
X00801443Y00297921D01*
X00811443D01*
X00813009Y00298127D01*
X00814469Y00298732D01*
X00815722Y00299694D01*
X00816684Y00300947D01*
X00817289Y00302407D01*
X00817495Y00303973D01*
Y00311973D01*
X00817289Y00313539D01*
X00816684Y00314999D01*
X00815722Y00316252D01*
X00814469Y00317214D01*
X00813009Y00317819D01*
X00811443Y00318025D01*
D02*
G37*
G36*
X00487445Y00338750D02*
X00485555D01*
X00483809Y00338027D01*
X00482473Y00336691D01*
X00481750Y00334945D01*
Y00333055D01*
X00481912Y00332664D01*
Y00303901D01*
X00475256Y00297244D01*
X00474261Y00295756D01*
X00473912Y00294000D01*
Y00277675D01*
Y00260588D01*
X00472336D01*
X00471945Y00260750D01*
X00470055D01*
X00468309Y00260027D01*
X00466973Y00258691D01*
X00466250Y00256945D01*
Y00255055D01*
X00466973Y00253309D01*
X00468309Y00251973D01*
X00470055Y00251250D01*
X00471945D01*
X00472336Y00251412D01*
X00473912D01*
Y00224000D01*
Y00209900D01*
X00462256Y00198244D01*
X00461261Y00196756D01*
X00460912Y00195000D01*
Y00138336D01*
X00460750Y00137945D01*
Y00136055D01*
X00461473Y00134309D01*
X00462809Y00132973D01*
X00464555Y00132250D01*
X00466445D01*
X00468191Y00132973D01*
X00469527Y00134309D01*
X00470250Y00136055D01*
Y00137945D01*
X00470088Y00138336D01*
Y00193099D01*
X00481744Y00204756D01*
X00482739Y00206244D01*
X00483088Y00208000D01*
Y00219412D01*
X00520664D01*
X00521055Y00219250D01*
X00522945D01*
X00523335Y00219412D01*
X00562164D01*
X00562555Y00219250D01*
X00564445D01*
X00566191Y00219973D01*
X00567527Y00221309D01*
X00568250Y00223055D01*
Y00224945D01*
X00567527Y00226691D01*
X00566191Y00228027D01*
X00564445Y00228750D01*
X00562555D01*
X00562164Y00228588D01*
X00523335D01*
X00522945Y00228750D01*
X00521055D01*
X00520664Y00228588D01*
X00483088D01*
Y00256000D01*
Y00272912D01*
X00489540D01*
X00489739Y00271912D01*
X00488809Y00271527D01*
X00487473Y00270191D01*
X00486750Y00268445D01*
Y00266555D01*
X00487473Y00264809D01*
X00488809Y00263473D01*
X00490555Y00262750D01*
X00492445D01*
X00492836Y00262912D01*
X00495500D01*
X00497256Y00263261D01*
X00498744Y00264256D01*
X00504244Y00269756D01*
X00505239Y00271244D01*
X00505588Y00273000D01*
Y00288912D01*
X00513367D01*
X00515123Y00289261D01*
X00516611Y00290256D01*
X00521065Y00294709D01*
X00581724D01*
X00586412Y00290021D01*
Y00285835D01*
X00586250Y00285445D01*
Y00283555D01*
X00586973Y00281809D01*
X00588309Y00280473D01*
X00588383Y00280101D01*
X00587473Y00279191D01*
X00586750Y00277445D01*
Y00275555D01*
X00587473Y00273809D01*
X00588809Y00272473D01*
X00590555Y00271750D01*
X00592445D01*
X00592836Y00271912D01*
X00599500D01*
X00601256Y00272261D01*
X00602744Y00273256D01*
X00610244Y00280756D01*
X00611239Y00282244D01*
X00611588Y00284000D01*
Y00292912D01*
X00614664D01*
X00615055Y00292750D01*
X00616945D01*
X00618691Y00293473D01*
X00620027Y00294809D01*
X00620750Y00296555D01*
Y00298445D01*
X00620027Y00300191D01*
X00618691Y00301527D01*
X00616945Y00302250D01*
X00615055D01*
X00614664Y00302088D01*
X00611588D01*
Y00317000D01*
X00611239Y00318756D01*
X00610244Y00320244D01*
X00600244Y00330244D01*
X00598756Y00331239D01*
X00597000Y00331588D01*
X00566335D01*
X00565945Y00331750D01*
X00564055D01*
X00563665Y00331588D01*
X00508350D01*
X00507960Y00331750D01*
X00506070D01*
X00504324Y00331027D01*
X00502988Y00329691D01*
X00502265Y00327945D01*
Y00326055D01*
X00502988Y00324309D01*
X00504324Y00322973D01*
X00506070Y00322250D01*
X00507960D01*
X00508350Y00322412D01*
X00563665D01*
X00564055Y00322250D01*
X00565945D01*
X00566335Y00322412D01*
X00595099D01*
X00602412Y00315100D01*
Y00297500D01*
Y00285900D01*
X00597599Y00281088D01*
X00595612D01*
X00595142Y00282088D01*
X00595750Y00283555D01*
Y00285445D01*
X00595588Y00285835D01*
Y00291922D01*
X00595239Y00293677D01*
X00594244Y00295166D01*
X00586869Y00302542D01*
X00585380Y00303536D01*
X00583624Y00303885D01*
X00519164D01*
X00517408Y00303536D01*
X00515920Y00302542D01*
X00511466Y00298088D01*
X00492836D01*
X00492445Y00298250D01*
X00490609D01*
X00490425Y00298436D01*
X00489967Y00299089D01*
X00490739Y00300244D01*
X00491088Y00302000D01*
Y00332664D01*
X00491250Y00333055D01*
Y00334945D01*
X00490527Y00336691D01*
X00489191Y00338027D01*
X00487445Y00338750D01*
D02*
G37*
G36*
X00836843Y00318025D02*
X00826843D01*
X00825277Y00317819D01*
X00823817Y00317214D01*
X00822564Y00316252D01*
X00821602Y00314999D01*
X00820997Y00313539D01*
X00820791Y00311973D01*
Y00303973D01*
X00820857Y00303475D01*
X00818386Y00301005D01*
X00817391Y00299516D01*
X00817042Y00297760D01*
X00817145Y00297241D01*
X00817017Y00297113D01*
X00816410Y00296203D01*
X00816196Y00295130D01*
Y00291749D01*
X00815196Y00291256D01*
X00814469Y00291814D01*
X00813009Y00292418D01*
X00811443Y00292625D01*
X00801443D01*
X00799877Y00292418D01*
X00798417Y00291814D01*
X00797164Y00290852D01*
X00796202Y00289599D01*
X00795598Y00288139D01*
X00795391Y00286573D01*
Y00278573D01*
X00795598Y00277007D01*
X00796202Y00275547D01*
X00797164Y00274294D01*
X00798417Y00273332D01*
X00799877Y00272727D01*
X00801443Y00272521D01*
X00811443D01*
X00813009Y00272727D01*
X00814469Y00273332D01*
X00815196Y00273890D01*
X00816196Y00273397D01*
Y00267480D01*
X00815299Y00267037D01*
X00814973Y00267288D01*
X00813270Y00267993D01*
X00811443Y00268233D01*
X00807693D01*
Y00257173D01*
Y00246113D01*
X00811443D01*
X00813270Y00246353D01*
X00814973Y00247059D01*
X00815299Y00247309D01*
X00816196Y00246866D01*
Y00243161D01*
X00810905Y00237870D01*
X00808781Y00237250D01*
X00808555D01*
X00806809Y00236527D01*
X00805473Y00235191D01*
X00804750Y00233445D01*
Y00231555D01*
X00805473Y00229809D01*
X00806809Y00228473D01*
X00808555Y00227750D01*
X00810445D01*
X00812191Y00228473D01*
X00813527Y00229809D01*
X00814250Y00231555D01*
Y00231781D01*
X00814870Y00233905D01*
X00820983Y00240017D01*
X00821590Y00240927D01*
X00821804Y00242000D01*
Y00248362D01*
X00822804Y00248710D01*
X00823817Y00247932D01*
X00825277Y00247327D01*
X00826843Y00247121D01*
X00836843D01*
X00838409Y00247327D01*
X00839869Y00247932D01*
X00841122Y00248894D01*
X00842084Y00250147D01*
X00842689Y00251607D01*
X00842895Y00253173D01*
Y00261173D01*
X00842689Y00262739D01*
X00842084Y00264199D01*
X00841122Y00265452D01*
X00839869Y00266414D01*
X00838409Y00267019D01*
X00836843Y00267225D01*
X00826843D01*
X00825277Y00267019D01*
X00823817Y00266414D01*
X00822804Y00265636D01*
X00821804Y00265984D01*
Y00273762D01*
X00822804Y00274110D01*
X00823817Y00273332D01*
X00825277Y00272727D01*
X00826843Y00272521D01*
X00836843D01*
X00838409Y00272727D01*
X00839869Y00273332D01*
X00841122Y00274294D01*
X00842084Y00275547D01*
X00842689Y00277007D01*
X00842895Y00278573D01*
Y00286573D01*
X00842689Y00288139D01*
X00842084Y00289599D01*
X00841122Y00290852D01*
X00839869Y00291814D01*
X00838409Y00292418D01*
X00836843Y00292625D01*
X00826843D01*
X00825277Y00292418D01*
X00823817Y00291814D01*
X00822804Y00291036D01*
X00821804Y00291384D01*
Y00293207D01*
X00823386Y00293521D01*
X00824875Y00294516D01*
X00828280Y00297921D01*
X00836843D01*
X00838409Y00298127D01*
X00839869Y00298732D01*
X00841122Y00299694D01*
X00842084Y00300947D01*
X00842689Y00302407D01*
X00842895Y00303973D01*
Y00311973D01*
X00842689Y00313539D01*
X00842084Y00314999D01*
X00841122Y00316252D01*
X00839869Y00317214D01*
X00838409Y00317819D01*
X00836843Y00318025D01*
D02*
G37*
G36*
X00642945Y00338250D02*
X00641055D01*
X00639309Y00337527D01*
X00637973Y00336191D01*
X00637250Y00334445D01*
Y00332555D01*
X00637973Y00330809D01*
X00639309Y00329473D01*
X00641055Y00328750D01*
X00642945D01*
X00643644Y00328000D01*
X00643415Y00327754D01*
X00642723Y00327250D01*
X00641055D01*
X00639309Y00326527D01*
X00637973Y00325191D01*
X00637250Y00323445D01*
Y00321555D01*
X00637973Y00319809D01*
X00639309Y00318473D01*
X00641055Y00317750D01*
X00642945D01*
X00643644Y00317000D01*
X00643415Y00316754D01*
X00642723Y00316250D01*
X00641055D01*
X00639309Y00315527D01*
X00637973Y00314191D01*
X00637250Y00312445D01*
Y00310555D01*
X00637973Y00308809D01*
X00639309Y00307473D01*
X00641055Y00306750D01*
X00642945D01*
X00643644Y00306000D01*
X00643415Y00305754D01*
X00642723Y00305250D01*
X00641055D01*
X00639309Y00304527D01*
X00637973Y00303191D01*
X00637250Y00301445D01*
Y00299555D01*
X00637973Y00297809D01*
X00639309Y00296473D01*
X00641055Y00295750D01*
X00642945D01*
X00643250Y00295876D01*
X00644250Y00295208D01*
Y00294055D01*
X00644973Y00292309D01*
X00646309Y00290973D01*
X00648055Y00290250D01*
X00649945D01*
X00651691Y00290973D01*
X00651850Y00291133D01*
X00653791Y00292196D01*
X00694709D01*
X00696650Y00291133D01*
X00696809Y00290973D01*
X00698555Y00290250D01*
X00700445D01*
X00702191Y00290973D01*
X00703527Y00292309D01*
X00704250Y00294055D01*
Y00295945D01*
X00703527Y00297691D01*
X00702191Y00299027D01*
X00700445Y00299750D01*
X00698555D01*
X00697856Y00300500D01*
X00698085Y00300746D01*
X00698777Y00301250D01*
X00700445D01*
X00702191Y00301973D01*
X00703527Y00303309D01*
X00704250Y00305055D01*
Y00306945D01*
X00703527Y00308691D01*
X00702191Y00310027D01*
X00700445Y00310750D01*
X00698555D01*
X00697856Y00311500D01*
X00698085Y00311746D01*
X00698777Y00312250D01*
X00700445D01*
X00702191Y00312973D01*
X00703527Y00314309D01*
X00704250Y00316055D01*
Y00317945D01*
X00703527Y00319691D01*
X00702191Y00321027D01*
X00700445Y00321750D01*
X00698555D01*
X00697856Y00322500D01*
X00698085Y00322746D01*
X00698777Y00323250D01*
X00700445D01*
X00702191Y00323973D01*
X00703527Y00325309D01*
X00704250Y00327055D01*
Y00328945D01*
X00703527Y00330691D01*
X00702191Y00332027D01*
X00700445Y00332750D01*
X00698555D01*
X00698250Y00332623D01*
X00697250Y00333292D01*
Y00334445D01*
X00696527Y00336190D01*
X00695191Y00337527D01*
X00693445Y00338250D01*
X00691555D01*
X00689809Y00337527D01*
X00689650Y00337367D01*
X00687709Y00336304D01*
X00646791D01*
X00644850Y00337367D01*
X00644691Y00337527D01*
X00642945Y00338250D01*
D02*
G37*
G36*
X00805193Y00268233D02*
X00801443D01*
X00799616Y00267993D01*
X00797913Y00267288D01*
X00796451Y00266165D01*
X00795329Y00264703D01*
X00794623Y00263000D01*
X00794383Y00261173D01*
Y00258423D01*
X00805193D01*
Y00268233D01*
D02*
G37*
G36*
X00568445Y00284750D02*
X00566555D01*
X00564809Y00284027D01*
X00563473Y00282691D01*
X00562750Y00280945D01*
Y00279055D01*
X00563473Y00277309D01*
X00564782Y00276000D01*
X00563473Y00274691D01*
X00562750Y00272945D01*
Y00271055D01*
X00563473Y00269309D01*
X00564809Y00267973D01*
X00566555Y00267250D01*
X00566781D01*
X00568905Y00266630D01*
X00580517Y00255017D01*
X00581427Y00254410D01*
X00582500Y00254196D01*
X00688339D01*
X00690017Y00252517D01*
X00690927Y00251910D01*
X00692000Y00251696D01*
X00693209D01*
X00695150Y00250633D01*
X00695309Y00250473D01*
X00697055Y00249750D01*
X00698945D01*
X00700691Y00250473D01*
X00702027Y00251809D01*
X00702750Y00253555D01*
Y00255445D01*
X00702027Y00257191D01*
X00701121Y00258097D01*
X00700800Y00258750D01*
X00701121Y00259403D01*
X00702027Y00260309D01*
X00702750Y00262055D01*
Y00263945D01*
X00702027Y00265691D01*
X00700691Y00267027D01*
X00698945Y00267750D01*
X00697055D01*
X00695309Y00267027D01*
X00695150Y00266867D01*
X00693209Y00265804D01*
X00692000D01*
X00690927Y00265590D01*
X00690017Y00264983D01*
X00688339Y00263304D01*
X00586161D01*
X00577163Y00272303D01*
Y00278170D01*
X00576949Y00279243D01*
X00576341Y00280152D01*
X00574511Y00281983D01*
X00573601Y00282590D01*
X00572528Y00282804D01*
X00572291D01*
X00570350Y00283867D01*
X00570191Y00284027D01*
X00568445Y00284750D01*
D02*
G37*
G36*
X00805193Y00255923D02*
X00794383D01*
Y00253173D01*
X00794623Y00251346D01*
X00795329Y00249643D01*
X00796451Y00248181D01*
X00797913Y00247059D01*
X00799616Y00246353D01*
X00801443Y00246113D01*
X00805193D01*
Y00255923D01*
D02*
G37*
G36*
X00319945Y00261250D02*
X00318055D01*
X00316309Y00260527D01*
X00314973Y00259191D01*
X00314250Y00257445D01*
Y00255555D01*
X00314973Y00253809D01*
X00316309Y00252473D01*
X00318055Y00251750D01*
X00319945D01*
X00320336Y00251912D01*
X00340600D01*
X00350684Y00241828D01*
X00352172Y00240833D01*
X00353928Y00240484D01*
X00378164D01*
X00378555Y00240322D01*
X00380445D01*
X00382191Y00241045D01*
X00383527Y00242381D01*
X00384250Y00244127D01*
Y00246017D01*
X00383527Y00247763D01*
X00382191Y00249099D01*
X00380445Y00249822D01*
X00378555D01*
X00378164Y00249660D01*
X00355828D01*
X00345744Y00259744D01*
X00344256Y00260739D01*
X00342500Y00261088D01*
X00320336D01*
X00319945Y00261250D01*
D02*
G37*
G36*
X00200500Y00146500D02*
X00176500Y00146500D01*
X00176500Y00107500D01*
X00200500Y00107500D01*
X00200500Y00146500D01*
D02*
G37*
G36*
X00565445Y00061750D02*
X00563555D01*
X00561809Y00061027D01*
X00561650Y00060867D01*
X00559709Y00059804D01*
X00503442D01*
X00502369Y00059590D01*
X00501459Y00058983D01*
X00498390Y00055914D01*
X00497783Y00055004D01*
X00497569Y00053931D01*
Y00053366D01*
X00497129Y00053071D01*
X00496134Y00051583D01*
X00495785Y00049827D01*
Y00044325D01*
X00493710Y00043466D01*
X00491883Y00042064D01*
X00490480Y00040236D01*
X00489598Y00038107D01*
X00489297Y00035823D01*
Y00021323D01*
X00489598Y00019039D01*
X00490480Y00016910D01*
X00491883Y00015082D01*
X00493710Y00013680D01*
X00495839Y00012798D01*
X00498123Y00012498D01*
X00502623D01*
X00504907Y00012798D01*
X00507036Y00013680D01*
X00508864Y00015082D01*
X00510266Y00016910D01*
X00511148Y00019039D01*
X00511449Y00021323D01*
Y00035823D01*
X00511148Y00038107D01*
X00510266Y00040236D01*
X00508864Y00042064D01*
X00507036Y00043466D01*
X00504961Y00044325D01*
Y00049827D01*
X00504612Y00051583D01*
X00503617Y00053071D01*
X00503605Y00053198D01*
X00504603Y00054196D01*
X00559709D01*
X00561650Y00053133D01*
X00561809Y00052973D01*
X00563555Y00052250D01*
X00565445D01*
X00567191Y00052973D01*
X00568527Y00054309D01*
X00569250Y00056055D01*
Y00057945D01*
X00568527Y00059691D01*
X00567191Y00061027D01*
X00565445Y00061750D01*
D02*
G37*
G36*
X00604473Y00045624D02*
Y00031073D01*
X00614057D01*
Y00035823D01*
X00613722Y00038368D01*
X00612740Y00040740D01*
X00611177Y00042777D01*
X00609140Y00044340D01*
X00606768Y00045322D01*
X00604473Y00045624D01*
D02*
G37*
G36*
X00579073D02*
Y00031073D01*
X00588657D01*
Y00035823D01*
X00588322Y00038368D01*
X00587340Y00040740D01*
X00585777Y00042777D01*
X00583740Y00044340D01*
X00581368Y00045322D01*
X00579073Y00045624D01*
D02*
G37*
G36*
X00599473D02*
X00597178Y00045322D01*
X00594806Y00044340D01*
X00592769Y00042777D01*
X00591206Y00040740D01*
X00590224Y00038368D01*
X00589889Y00035823D01*
Y00031073D01*
X00599473D01*
Y00045624D01*
D02*
G37*
G36*
X00574073D02*
X00571778Y00045322D01*
X00569406Y00044340D01*
X00567369Y00042777D01*
X00565806Y00040740D01*
X00564824Y00038368D01*
X00564489Y00035823D01*
Y00031073D01*
X00574073D01*
Y00045624D01*
D02*
G37*
G36*
X00807423Y00044648D02*
X00802923D01*
X00800639Y00044348D01*
X00798510Y00043466D01*
X00796683Y00042064D01*
X00795280Y00040236D01*
X00794398Y00038107D01*
X00794098Y00035823D01*
Y00021323D01*
X00794398Y00019039D01*
X00795280Y00016910D01*
X00796683Y00015082D01*
X00798510Y00013680D01*
X00800639Y00012798D01*
X00802923Y00012498D01*
X00807423D01*
X00809707Y00012798D01*
X00811836Y00013680D01*
X00813664Y00015082D01*
X00815066Y00016910D01*
X00815948Y00019039D01*
X00816248Y00021323D01*
Y00035823D01*
X00815948Y00038107D01*
X00815066Y00040236D01*
X00813664Y00042064D01*
X00811836Y00043466D01*
X00809707Y00044348D01*
X00807423Y00044648D01*
D02*
G37*
G36*
X00782023D02*
X00777523D01*
X00775239Y00044348D01*
X00773110Y00043466D01*
X00771283Y00042064D01*
X00769880Y00040236D01*
X00768998Y00038107D01*
X00768698Y00035823D01*
Y00021323D01*
X00768998Y00019039D01*
X00769880Y00016910D01*
X00771283Y00015082D01*
X00773110Y00013680D01*
X00775239Y00012798D01*
X00777523Y00012498D01*
X00782023D01*
X00784307Y00012798D01*
X00786436Y00013680D01*
X00788264Y00015082D01*
X00789666Y00016910D01*
X00790548Y00019039D01*
X00790848Y00021323D01*
Y00035823D01*
X00790548Y00038107D01*
X00789666Y00040236D01*
X00788264Y00042064D01*
X00786436Y00043466D01*
X00784307Y00044348D01*
X00782023Y00044648D01*
D02*
G37*
G36*
X00756623D02*
X00752123D01*
X00749839Y00044348D01*
X00747710Y00043466D01*
X00745882Y00042064D01*
X00744480Y00040236D01*
X00743598Y00038107D01*
X00743298Y00035823D01*
Y00021323D01*
X00743598Y00019039D01*
X00744480Y00016910D01*
X00745882Y00015082D01*
X00747710Y00013680D01*
X00749839Y00012798D01*
X00752123Y00012498D01*
X00756623D01*
X00758907Y00012798D01*
X00761036Y00013680D01*
X00762864Y00015082D01*
X00764266Y00016910D01*
X00765148Y00019039D01*
X00765449Y00021323D01*
Y00035823D01*
X00765148Y00038107D01*
X00764266Y00040236D01*
X00762864Y00042064D01*
X00761036Y00043466D01*
X00758907Y00044348D01*
X00756623Y00044648D01*
D02*
G37*
G36*
X00731223D02*
X00726723D01*
X00724439Y00044348D01*
X00722310Y00043466D01*
X00720482Y00042064D01*
X00719080Y00040236D01*
X00718198Y00038107D01*
X00717897Y00035823D01*
Y00021323D01*
X00718198Y00019039D01*
X00719080Y00016910D01*
X00720482Y00015082D01*
X00722310Y00013680D01*
X00724439Y00012798D01*
X00726723Y00012498D01*
X00731223D01*
X00733507Y00012798D01*
X00735636Y00013680D01*
X00737464Y00015082D01*
X00738866Y00016910D01*
X00739748Y00019039D01*
X00740049Y00021323D01*
Y00035823D01*
X00739748Y00038107D01*
X00738866Y00040236D01*
X00737464Y00042064D01*
X00735636Y00043466D01*
X00733507Y00044348D01*
X00731223Y00044648D01*
D02*
G37*
G36*
X00705823D02*
X00701323D01*
X00699039Y00044348D01*
X00696910Y00043466D01*
X00695082Y00042064D01*
X00693680Y00040236D01*
X00692798Y00038107D01*
X00692497Y00035823D01*
Y00021323D01*
X00692798Y00019039D01*
X00693680Y00016910D01*
X00695082Y00015082D01*
X00696910Y00013680D01*
X00699039Y00012798D01*
X00701323Y00012498D01*
X00705823D01*
X00708107Y00012798D01*
X00710236Y00013680D01*
X00712064Y00015082D01*
X00713466Y00016910D01*
X00714348Y00019039D01*
X00714649Y00021323D01*
Y00035823D01*
X00714348Y00038107D01*
X00713466Y00040236D01*
X00712064Y00042064D01*
X00710236Y00043466D01*
X00708107Y00044348D01*
X00705823Y00044648D01*
D02*
G37*
G36*
X00680423D02*
X00675923D01*
X00673639Y00044348D01*
X00671510Y00043466D01*
X00669682Y00042064D01*
X00668280Y00040236D01*
X00667398Y00038107D01*
X00667097Y00035823D01*
Y00021323D01*
X00667398Y00019039D01*
X00668280Y00016910D01*
X00669682Y00015082D01*
X00671510Y00013680D01*
X00673639Y00012798D01*
X00675923Y00012498D01*
X00680423D01*
X00682707Y00012798D01*
X00684836Y00013680D01*
X00686664Y00015082D01*
X00688066Y00016910D01*
X00688948Y00019039D01*
X00689249Y00021323D01*
Y00035823D01*
X00688948Y00038107D01*
X00688066Y00040236D01*
X00686664Y00042064D01*
X00684836Y00043466D01*
X00682707Y00044348D01*
X00680423Y00044648D01*
D02*
G37*
G36*
X00629623D02*
X00625123D01*
X00622839Y00044348D01*
X00620710Y00043466D01*
X00618882Y00042064D01*
X00617480Y00040236D01*
X00616598Y00038107D01*
X00616297Y00035823D01*
Y00021323D01*
X00616598Y00019039D01*
X00617480Y00016910D01*
X00618882Y00015082D01*
X00620710Y00013680D01*
X00622839Y00012798D01*
X00625123Y00012498D01*
X00629623D01*
X00631907Y00012798D01*
X00634036Y00013680D01*
X00635864Y00015082D01*
X00637266Y00016910D01*
X00638148Y00019039D01*
X00638448Y00021323D01*
Y00035823D01*
X00638148Y00038107D01*
X00637266Y00040236D01*
X00635864Y00042064D01*
X00634036Y00043466D01*
X00631907Y00044348D01*
X00629623Y00044648D01*
D02*
G37*
G36*
X00553423D02*
X00548923D01*
X00546639Y00044348D01*
X00544510Y00043466D01*
X00542682Y00042064D01*
X00541280Y00040236D01*
X00540398Y00038107D01*
X00540098Y00035823D01*
Y00021323D01*
X00540398Y00019039D01*
X00541280Y00016910D01*
X00542682Y00015082D01*
X00544510Y00013680D01*
X00546639Y00012798D01*
X00548923Y00012498D01*
X00553423D01*
X00555707Y00012798D01*
X00557836Y00013680D01*
X00559664Y00015082D01*
X00561066Y00016910D01*
X00561948Y00019039D01*
X00562248Y00021323D01*
Y00035823D01*
X00561948Y00038107D01*
X00561066Y00040236D01*
X00559664Y00042064D01*
X00557836Y00043466D01*
X00555707Y00044348D01*
X00553423Y00044648D01*
D02*
G37*
G36*
X00528023D02*
X00523523D01*
X00521239Y00044348D01*
X00519110Y00043466D01*
X00517282Y00042064D01*
X00515880Y00040236D01*
X00514998Y00038107D01*
X00514697Y00035823D01*
Y00021323D01*
X00514998Y00019039D01*
X00515880Y00016910D01*
X00517282Y00015082D01*
X00519110Y00013680D01*
X00521239Y00012798D01*
X00523523Y00012498D01*
X00528023D01*
X00530307Y00012798D01*
X00532436Y00013680D01*
X00534264Y00015082D01*
X00535666Y00016910D01*
X00536548Y00019039D01*
X00536848Y00021323D01*
Y00035823D01*
X00536548Y00038107D01*
X00535666Y00040236D01*
X00534264Y00042064D01*
X00532436Y00043466D01*
X00530307Y00044348D01*
X00528023Y00044648D01*
D02*
G37*
G36*
X00477223D02*
X00472723D01*
X00470439Y00044348D01*
X00468310Y00043466D01*
X00466483Y00042064D01*
X00465080Y00040236D01*
X00464198Y00038107D01*
X00463898Y00035823D01*
Y00021323D01*
X00464198Y00019039D01*
X00465080Y00016910D01*
X00466483Y00015082D01*
X00468310Y00013680D01*
X00470439Y00012798D01*
X00472723Y00012498D01*
X00477223D01*
X00479507Y00012798D01*
X00481636Y00013680D01*
X00483464Y00015082D01*
X00484866Y00016910D01*
X00485748Y00019039D01*
X00486049Y00021323D01*
Y00035823D01*
X00485748Y00038107D01*
X00484866Y00040236D01*
X00483464Y00042064D01*
X00481636Y00043466D01*
X00479507Y00044348D01*
X00477223Y00044648D01*
D02*
G37*
G36*
X00451823D02*
X00447323D01*
X00445039Y00044348D01*
X00442910Y00043466D01*
X00441082Y00042064D01*
X00439680Y00040236D01*
X00438798Y00038107D01*
X00438498Y00035823D01*
Y00021323D01*
X00438798Y00019039D01*
X00439680Y00016910D01*
X00441082Y00015082D01*
X00442910Y00013680D01*
X00445039Y00012798D01*
X00447323Y00012498D01*
X00451823D01*
X00454107Y00012798D01*
X00456236Y00013680D01*
X00458064Y00015082D01*
X00459466Y00016910D01*
X00460348Y00019039D01*
X00460648Y00021323D01*
Y00035823D01*
X00460348Y00038107D01*
X00459466Y00040236D01*
X00458064Y00042064D01*
X00456236Y00043466D01*
X00454107Y00044348D01*
X00451823Y00044648D01*
D02*
G37*
G36*
X00401023D02*
X00396523D01*
X00394239Y00044348D01*
X00392110Y00043466D01*
X00390283Y00042064D01*
X00388880Y00040236D01*
X00387998Y00038107D01*
X00387697Y00035823D01*
Y00021323D01*
X00387998Y00019039D01*
X00388880Y00016910D01*
X00390283Y00015082D01*
X00392110Y00013680D01*
X00394239Y00012798D01*
X00396523Y00012498D01*
X00401023D01*
X00403307Y00012798D01*
X00405436Y00013680D01*
X00407264Y00015082D01*
X00408666Y00016910D01*
X00409548Y00019039D01*
X00409849Y00021323D01*
Y00035823D01*
X00409548Y00038107D01*
X00408666Y00040236D01*
X00407264Y00042064D01*
X00405436Y00043466D01*
X00403307Y00044348D01*
X00401023Y00044648D01*
D02*
G37*
G36*
X00375623D02*
X00371123D01*
X00368839Y00044348D01*
X00366710Y00043466D01*
X00364883Y00042064D01*
X00363480Y00040236D01*
X00362598Y00038107D01*
X00362298Y00035823D01*
Y00021323D01*
X00362598Y00019039D01*
X00363480Y00016910D01*
X00364883Y00015082D01*
X00366710Y00013680D01*
X00368839Y00012798D01*
X00371123Y00012498D01*
X00375623D01*
X00377907Y00012798D01*
X00380036Y00013680D01*
X00381864Y00015082D01*
X00383266Y00016910D01*
X00384148Y00019039D01*
X00384449Y00021323D01*
Y00035823D01*
X00384148Y00038107D01*
X00383266Y00040236D01*
X00381864Y00042064D01*
X00380036Y00043466D01*
X00377907Y00044348D01*
X00375623Y00044648D01*
D02*
G37*
G36*
X00350223D02*
X00345723D01*
X00343439Y00044348D01*
X00341310Y00043466D01*
X00339482Y00042064D01*
X00338080Y00040236D01*
X00337198Y00038107D01*
X00336898Y00035823D01*
Y00021323D01*
X00337198Y00019039D01*
X00338080Y00016910D01*
X00339482Y00015082D01*
X00341310Y00013680D01*
X00343439Y00012798D01*
X00345723Y00012498D01*
X00350223D01*
X00352507Y00012798D01*
X00354636Y00013680D01*
X00356464Y00015082D01*
X00357866Y00016910D01*
X00358748Y00019039D01*
X00359049Y00021323D01*
Y00035823D01*
X00358748Y00038107D01*
X00357866Y00040236D01*
X00356464Y00042064D01*
X00354636Y00043466D01*
X00352507Y00044348D01*
X00350223Y00044648D01*
D02*
G37*
G36*
X00324823D02*
X00320323D01*
X00318039Y00044348D01*
X00315910Y00043466D01*
X00314083Y00042064D01*
X00312680Y00040236D01*
X00311798Y00038107D01*
X00311497Y00035823D01*
Y00021323D01*
X00311798Y00019039D01*
X00312680Y00016910D01*
X00314083Y00015082D01*
X00315910Y00013680D01*
X00318039Y00012798D01*
X00320323Y00012498D01*
X00324823D01*
X00327107Y00012798D01*
X00329236Y00013680D01*
X00331064Y00015082D01*
X00332466Y00016910D01*
X00333348Y00019039D01*
X00333648Y00021323D01*
Y00035823D01*
X00333348Y00038107D01*
X00332466Y00040236D01*
X00331064Y00042064D01*
X00329236Y00043466D01*
X00327107Y00044348D01*
X00324823Y00044648D01*
D02*
G37*
G36*
X00299423D02*
X00294923D01*
X00292639Y00044348D01*
X00290510Y00043466D01*
X00288682Y00042064D01*
X00287280Y00040236D01*
X00286398Y00038107D01*
X00286098Y00035823D01*
Y00021323D01*
X00286398Y00019039D01*
X00287280Y00016910D01*
X00288682Y00015082D01*
X00290510Y00013680D01*
X00292639Y00012798D01*
X00294923Y00012498D01*
X00299423D01*
X00301707Y00012798D01*
X00303836Y00013680D01*
X00305664Y00015082D01*
X00307066Y00016910D01*
X00307948Y00019039D01*
X00308249Y00021323D01*
Y00035823D01*
X00307948Y00038107D01*
X00307066Y00040236D01*
X00305664Y00042064D01*
X00303836Y00043466D01*
X00301707Y00044348D01*
X00299423Y00044648D01*
D02*
G37*
G36*
X00274023D02*
X00269523D01*
X00267239Y00044348D01*
X00265110Y00043466D01*
X00263283Y00042064D01*
X00261880Y00040236D01*
X00260998Y00038107D01*
X00260697Y00035823D01*
Y00021323D01*
X00260998Y00019039D01*
X00261880Y00016910D01*
X00263283Y00015082D01*
X00265110Y00013680D01*
X00267239Y00012798D01*
X00269523Y00012498D01*
X00274023D01*
X00276307Y00012798D01*
X00278436Y00013680D01*
X00280264Y00015082D01*
X00281666Y00016910D01*
X00282548Y00019039D01*
X00282848Y00021323D01*
Y00035823D01*
X00282548Y00038107D01*
X00281666Y00040236D01*
X00280264Y00042064D01*
X00278436Y00043466D01*
X00276307Y00044348D01*
X00274023Y00044648D01*
D02*
G37*
G36*
X00248623D02*
X00244123D01*
X00241839Y00044348D01*
X00239710Y00043466D01*
X00237882Y00042064D01*
X00236480Y00040236D01*
X00235598Y00038107D01*
X00235298Y00035823D01*
Y00021323D01*
X00235598Y00019039D01*
X00236480Y00016910D01*
X00237882Y00015082D01*
X00239710Y00013680D01*
X00241839Y00012798D01*
X00244123Y00012498D01*
X00248623D01*
X00250907Y00012798D01*
X00253036Y00013680D01*
X00254864Y00015082D01*
X00256266Y00016910D01*
X00257148Y00019039D01*
X00257449Y00021323D01*
Y00035823D01*
X00257148Y00038107D01*
X00256266Y00040236D01*
X00254864Y00042064D01*
X00253036Y00043466D01*
X00250907Y00044348D01*
X00248623Y00044648D01*
D02*
G37*
G36*
X00223223D02*
X00218723D01*
X00216439Y00044348D01*
X00214310Y00043466D01*
X00212482Y00042064D01*
X00211080Y00040236D01*
X00210198Y00038107D01*
X00209897Y00035823D01*
Y00021323D01*
X00210198Y00019039D01*
X00211080Y00016910D01*
X00212482Y00015082D01*
X00214310Y00013680D01*
X00216439Y00012798D01*
X00218723Y00012498D01*
X00223223D01*
X00225507Y00012798D01*
X00227636Y00013680D01*
X00229464Y00015082D01*
X00230866Y00016910D01*
X00231748Y00019039D01*
X00232048Y00021323D01*
Y00035823D01*
X00231748Y00038107D01*
X00230866Y00040236D01*
X00229464Y00042064D01*
X00227636Y00043466D01*
X00225507Y00044348D01*
X00223223Y00044648D01*
D02*
G37*
G36*
X00614057Y00026073D02*
X00604473D01*
Y00011522D01*
X00606768Y00011824D01*
X00609140Y00012806D01*
X00611177Y00014369D01*
X00612740Y00016406D01*
X00613722Y00018778D01*
X00614057Y00021323D01*
Y00026073D01*
D02*
G37*
G36*
X00588657D02*
X00579073D01*
Y00011522D01*
X00581368Y00011824D01*
X00583740Y00012806D01*
X00585777Y00014369D01*
X00587340Y00016406D01*
X00588322Y00018778D01*
X00588657Y00021323D01*
Y00026073D01*
D02*
G37*
G36*
X00599473D02*
X00589889D01*
Y00021323D01*
X00590224Y00018778D01*
X00591206Y00016406D01*
X00592769Y00014369D01*
X00594806Y00012806D01*
X00597178Y00011824D01*
X00599473Y00011522D01*
Y00026073D01*
D02*
G37*
G36*
X00574073D02*
X00564489D01*
Y00021323D01*
X00564824Y00018778D01*
X00565806Y00016406D01*
X00567369Y00014369D01*
X00569406Y00012806D01*
X00571778Y00011824D01*
X00574073Y00011522D01*
Y00026073D01*
D02*
G37*
%LPD*%
G36*
X00449796Y00400250D02*
Y00398750D01*
X00447464Y00397575D01*
Y00401425D01*
X00449796Y00400250D01*
D02*
G37*
G36*
X00634344Y00349723D02*
X00631234Y00346613D01*
X00630389Y00349507D01*
X00631449Y00350568D01*
X00634344Y00349723D01*
D02*
G37*
G36*
X00697849Y00344801D02*
X00695204Y00346250D01*
Y00347750D01*
X00697849Y00349199D01*
Y00344801D01*
D02*
G37*
G36*
X00638252Y00347750D02*
Y00346250D01*
X00635608Y00344801D01*
Y00349199D01*
X00638252Y00347750D01*
D02*
G37*
G36*
X00813068Y00235007D02*
X00812223Y00232113D01*
X00809113Y00235223D01*
X00812007Y00236068D01*
X00813068Y00235007D01*
D02*
G37*
G36*
X00690849Y00331301D02*
X00688204Y00332750D01*
X00688204Y00334250D01*
X00690849Y00335699D01*
X00690849Y00331301D01*
D02*
G37*
G36*
X00646296Y00334250D02*
X00646296Y00332750D01*
X00643651Y00331301D01*
X00643651Y00335699D01*
X00646296Y00334250D01*
D02*
G37*
G36*
X00697849Y00325801D02*
X00695204Y00327250D01*
X00695204Y00328750D01*
X00697849Y00330199D01*
X00697849Y00325801D01*
D02*
G37*
G36*
X00653296Y00328750D02*
X00653296Y00327250D01*
X00650651Y00325801D01*
X00650651Y00330199D01*
X00653296Y00328750D01*
D02*
G37*
G36*
X00690849Y00320301D02*
X00688204Y00321750D01*
X00688204Y00323250D01*
X00690849Y00324699D01*
X00690849Y00320301D01*
D02*
G37*
G36*
X00646296Y00323250D02*
X00646296Y00321750D01*
X00643651Y00320301D01*
X00643651Y00324699D01*
X00646296Y00323250D01*
D02*
G37*
G36*
X00697849Y00314801D02*
X00695204Y00316250D01*
X00695204Y00317750D01*
X00697849Y00319199D01*
X00697849Y00314801D01*
D02*
G37*
G36*
X00653296Y00317750D02*
X00653296Y00316250D01*
X00650651Y00314801D01*
X00650651Y00319199D01*
X00653296Y00317750D01*
D02*
G37*
G36*
X00646296Y00312250D02*
X00646296Y00310750D01*
X00643651Y00309301D01*
X00643651Y00313699D01*
X00646296Y00312250D01*
D02*
G37*
G36*
X00690849Y00309301D02*
X00688204Y00310750D01*
X00688204Y00312250D01*
X00690849Y00313699D01*
X00690849Y00309301D01*
D02*
G37*
G36*
X00653296Y00306750D02*
X00653296Y00305250D01*
X00650651Y00303801D01*
X00650651Y00308199D01*
X00653296Y00306750D01*
D02*
G37*
G36*
X00697849Y00303801D02*
X00695204Y00305250D01*
X00695204Y00306750D01*
X00697849Y00308199D01*
X00697849Y00303801D01*
D02*
G37*
G36*
X00646296Y00301250D02*
Y00299750D01*
X00643651Y00298301D01*
Y00302699D01*
X00646296Y00301250D01*
D02*
G37*
G36*
X00690849Y00298301D02*
X00688204Y00299750D01*
X00688204Y00301250D01*
X00690849Y00302699D01*
X00690849Y00298301D01*
D02*
G37*
G36*
X00697849Y00292801D02*
X00695204Y00294250D01*
Y00295750D01*
X00697849Y00297199D01*
Y00292801D01*
D02*
G37*
G36*
X00653296Y00295750D02*
X00653296Y00294250D01*
X00650651Y00292801D01*
X00650651Y00297199D01*
X00653296Y00295750D01*
D02*
G37*
G36*
X00571796Y00280750D02*
Y00279250D01*
X00569151Y00277801D01*
Y00282199D01*
X00571796Y00280750D01*
D02*
G37*
G36*
X00571068Y00269493D02*
X00570007Y00268432D01*
X00567113Y00269277D01*
X00570223Y00272387D01*
X00571068Y00269493D01*
D02*
G37*
G36*
X00696349Y00260801D02*
X00693704Y00262250D01*
Y00263750D01*
X00696349Y00265199D01*
Y00260801D01*
D02*
G37*
G36*
Y00252301D02*
X00693704Y00253750D01*
Y00255250D01*
X00696349Y00256699D01*
Y00252301D01*
D02*
G37*
G36*
X00562849Y00054801D02*
X00560204Y00056250D01*
Y00057750D01*
X00562849Y00059199D01*
Y00054801D01*
D02*
G37*
D10*
X00179000Y00144000D02*
X00198000D01*
X00179000Y00128000D02*
Y00144000D01*
Y00128000D02*
X00198000D01*
Y00144000D01*
X00193500Y00139664D02*
Y00133000D01*
X00186835Y00139664D01*
X00185169D01*
X00183503Y00137998D01*
Y00134666D01*
X00185169Y00133000D01*
D12*
X00362693Y00080000D02*
X00590553D01*
X00353193Y00089500D02*
X00362693Y00080000D01*
X00269000Y00089500D02*
X00353193D01*
X00364042Y00085500D02*
X00592831D01*
X00277500Y00094500D02*
X00355042D01*
X00364042Y00085500D01*
X00356544Y00098868D02*
X00364412Y00091000D01*
X00595109D01*
X00337612Y00098868D02*
X00356544D01*
X00332980Y00103500D02*
X00337612Y00098868D01*
X00310000Y00103500D02*
X00332980D01*
X00595109Y00091000D02*
X00603109Y00083000D01*
X00648500Y00306000D02*
X00699500D01*
X00732000Y00097444D02*
Y00107500D01*
X00255000Y00103500D02*
X00269000Y00089500D01*
X00268500Y00103500D02*
X00277500Y00094500D01*
X00285000Y00103500D02*
X00293563Y00112063D01*
X00378197D01*
X00382760Y00107500D01*
X00342500Y00105500D02*
X00356263D01*
X00365263Y00096500D01*
X00597387D01*
X00375674Y00105500D02*
X00379174Y00102000D01*
X00599665D01*
X00367000Y00105500D02*
X00375674D01*
X00382760Y00107500D02*
X00601944D01*
X00599665Y00102000D02*
X00607665Y00094000D01*
X00601944Y00107500D02*
X00609944Y00099500D01*
X00597387Y00096500D02*
X00605387Y00088500D01*
X00390000Y00113000D02*
X00604222Y00113000D01*
X00605387Y00088500D02*
X00632113D01*
X00604222Y00113000D02*
X00612222Y00105000D01*
X00679222Y00389000D02*
X00709565Y00358657D01*
X00684000Y00216000D02*
X00709565Y00241565D01*
Y00358657D01*
X00686278Y00210500D02*
X00714660Y00238881D01*
X00681500Y00394500D02*
X00714660Y00361340D01*
Y00238881D02*
Y00361340D01*
X00688971Y00204000D02*
X00719592Y00234621D01*
X00684000Y00400000D02*
X00719592Y00364408D01*
Y00234621D02*
Y00364408D01*
X00686278Y00405500D02*
X00724903Y00366875D01*
X00691249Y00198500D02*
X00724903Y00232154D01*
Y00366875D01*
X00693527Y00193000D02*
X00729685Y00229158D01*
X00688556Y00411000D02*
X00729685Y00369872D01*
Y00229158D02*
Y00369872D01*
X00690835Y00416500D02*
X00734892Y00372442D01*
X00695805Y00187500D02*
X00734892Y00226587D01*
Y00372442D01*
X00698083Y00182000D02*
X00740180Y00224097D01*
X00693113Y00422000D02*
X00740180Y00374933D01*
Y00224097D02*
Y00374933D01*
X00572528Y00280000D02*
X00574359Y00278170D01*
Y00271141D02*
Y00278170D01*
Y00271141D02*
X00585000Y00260500D01*
X00567500Y00280000D02*
X00572528D01*
X00585000Y00260500D02*
X00689500D01*
X00582500Y00257000D02*
X00689500D01*
X00567500Y00272000D02*
X00567500D01*
X00582500Y00257000D01*
X00534715Y00399500D02*
X00571715Y00362500D01*
X00618457D02*
X00633957Y00347000D01*
X00571715Y00362500D02*
X00618457D01*
X00392260Y00469500D02*
X00478278D01*
X00489278Y00458500D02*
X00545778D01*
X00478278Y00469500D02*
X00489278Y00458500D01*
X00487000Y00453000D02*
X00543500D01*
X00369260Y00464000D02*
X00476000D01*
X00487000Y00453000D01*
X00491846Y00464000D02*
X00549860D01*
X00472500Y00483346D02*
Y00524500D01*
Y00483346D02*
X00491846Y00464000D01*
X00790322Y00476000D02*
X00799500D01*
X00783213Y00468891D02*
X00790322Y00476000D01*
X00783213Y00182044D02*
Y00468891D01*
X00777713Y00184322D02*
Y00443290D01*
X00754373Y00489919D02*
X00754373Y00466631D01*
Y00466631D02*
X00777713Y00443290D01*
X00809500Y00232500D02*
X00819000Y00242000D01*
Y00295130D01*
X00821630Y00297760D01*
X00699500Y00347000D02*
X00701000D01*
X00633957D02*
X00699500D01*
X00403000Y00118500D02*
X00606500Y00118500D01*
X00590553Y00080000D02*
X00598553Y00072000D01*
X00592831Y00085500D02*
X00600831Y00077500D01*
X00606500Y00118500D02*
X00614500Y00110500D01*
X00500373Y00049827D02*
Y00053931D01*
X00503442Y00057000D02*
X00564500D01*
X00500373Y00053931D02*
X00503442Y00057000D01*
X00609944Y00099500D02*
X00627556D01*
X00612222Y00105000D02*
X00625278D01*
X00598553Y00072000D02*
X00638947D01*
X00603109Y00083000D02*
X00634391D01*
X00600831Y00077500D02*
X00636669D01*
X00607665Y00094000D02*
X00629835D01*
X00614500Y00110500D02*
X00623000D01*
X00627556Y00099500D02*
X00632056Y00104000D01*
X00625278Y00105000D02*
X00629778Y00109500D01*
X00638947Y00072000D02*
X00643447Y00076500D01*
X00632113Y00088500D02*
X00636613Y00093000D01*
X00634391Y00083000D02*
X00638891Y00087500D01*
X00636669Y00077500D02*
X00641169Y00082000D01*
X00629835Y00094000D02*
X00634334Y00098500D01*
X00623000Y00110500D02*
X00627500Y00115000D01*
X00748010Y00066510D02*
X00769812D01*
X00774322Y00062000D02*
X00792500D01*
X00769812Y00066510D02*
X00774322Y00062000D01*
X00737000Y00055500D02*
X00748010Y00066510D01*
X00750087Y00059500D02*
X00767000D01*
X00741087Y00050500D02*
X00750087Y00059500D01*
X00689500Y00050500D02*
X00741087D01*
X00681000Y00059000D02*
X00689500Y00050500D01*
X00692500Y00055500D02*
X00737000D01*
X00679500Y00068500D02*
X00692500Y00055500D01*
X00643447Y00076500D02*
X00679053D01*
X00636613Y00093000D02*
X00685887D01*
X00634334Y00098500D02*
X00688166D01*
X00638891Y00087500D02*
X00683609D01*
X00641169Y00082000D02*
X00681331D01*
X00632056Y00104000D02*
X00690444D01*
X00629778Y00109500D02*
X00692722D01*
X00627500Y00115000D02*
X00695000D01*
X00679053Y00076500D02*
X00695053Y00060500D01*
X00685887Y00093000D02*
X00701887Y00077000D01*
X00688166Y00098500D02*
X00704165Y00082500D01*
X00683609Y00087500D02*
X00699609Y00071500D01*
X00681331Y00082000D02*
X00697331Y00066000D01*
X00690444Y00104000D02*
X00706444Y00088000D01*
X00692722Y00109500D02*
X00708722Y00093500D01*
X00695000Y00115000D02*
X00711000Y00099000D01*
X00695053Y00060500D02*
X00733947D01*
X00701887Y00077000D02*
X00727113D01*
X00704165Y00082500D02*
X00724835D01*
X00699609Y00071500D02*
X00729391D01*
X00697331Y00066000D02*
X00731669D01*
X00706444Y00088000D02*
X00722556D01*
X00708722Y00093500D02*
X00720278D01*
X00711000Y00099000D02*
X00718000D01*
X00733947Y00060500D02*
X00759500Y00086053D01*
X00727113Y00077000D02*
X00743000Y00092887D01*
X00724835Y00082500D02*
X00737500Y00095166D01*
X00729391Y00071500D02*
X00748500Y00090609D01*
X00731669Y00066000D02*
X00754000Y00088331D01*
X00722556Y00088000D02*
X00732000Y00097444D01*
X00720278Y00093500D02*
X00726500Y00099722D01*
X00718000Y00099000D02*
X00721000Y00102000D01*
Y00107000D01*
X00726500Y00099722D02*
Y00114000D01*
X00743000Y00092887D02*
Y00107000D01*
X00737500Y00095166D02*
Y00114000D01*
X00748500Y00090609D02*
Y00114000D01*
X00759500Y00086053D02*
Y00114000D01*
X00754000Y00088331D02*
Y00107000D01*
X00666000Y00059000D02*
X00681000D01*
X00666000Y00068500D02*
X00679500D01*
X00615000Y00120500D02*
X00771000D01*
X00775000Y00116500D02*
X00781088D01*
X00771000Y00120500D02*
X00775000Y00116500D01*
X00649000Y00328000D02*
X00699500D01*
X00642000Y00333500D02*
X00692500D01*
X00642000Y00322500D02*
X00692500D01*
X00642000Y00311500D02*
X00692500D01*
X00649000Y00317000D02*
X00699500D01*
X00642000Y00300500D02*
X00692500D01*
X00649000Y00295000D02*
X00699500D01*
X00700361Y00176500D02*
X00745101Y00221239D01*
X00695391Y00427500D02*
X00745101Y00377790D01*
Y00221239D02*
Y00377790D01*
X00692000Y00254500D02*
X00698000D01*
X00689500Y00257000D02*
X00692000Y00254500D01*
Y00263000D02*
X00698000D01*
X00689500Y00260500D02*
X00692000Y00263000D01*
X00734947Y00126000D02*
X00788713Y00179766D01*
Y00457458D02*
X00789990Y00458735D01*
X00761214Y00191157D02*
Y00435843D01*
X00725835Y00148000D02*
X00766713Y00188879D01*
X00789990Y00458735D02*
X00791735D01*
X00755713Y00193435D02*
Y00433565D01*
X00719778Y00469500D02*
X00755713Y00433565D01*
X00766713Y00188879D02*
Y00438121D01*
X00791735Y00458735D02*
X00792500Y00459500D01*
X00717500Y00464000D02*
X00750213Y00431287D01*
X00721278Y00159000D02*
X00755713Y00193435D01*
X00732669Y00131500D02*
X00783213Y00182044D01*
X00728973Y00483640D02*
X00772213Y00440399D01*
X00730391Y00137000D02*
X00777713Y00184322D01*
X00772213Y00186601D02*
Y00440399D01*
X00728113Y00142500D02*
X00772213Y00186601D01*
X00788713Y00179766D02*
Y00457458D01*
X00722056Y00475000D02*
X00761214Y00435843D01*
X00750213Y00195714D02*
Y00431287D01*
X00719000Y00164500D02*
X00750213Y00195714D01*
X00724334Y00480500D02*
X00766713Y00438121D01*
X00723556Y00153500D02*
X00761214Y00191157D01*
X00445500Y00399500D02*
X00534715D01*
X00614000Y00221000D02*
X00619000Y00216000D01*
X00607990Y00214990D02*
X00612479Y00210500D01*
X00621947Y00176500D02*
X00700361D01*
X00614947Y00182000D02*
X00698083D01*
X00621947Y00198500D02*
X00691249D01*
X00621447Y00187500D02*
X00695805D01*
X00614947Y00193000D02*
X00693527D01*
X00614947Y00204000D02*
X00688971D01*
X00619000Y00216000D02*
X00684000D01*
X00612479Y00210500D02*
X00686278D01*
X00622000Y00126000D02*
X00734947D01*
X00622000Y00137000D02*
X00730391D01*
X00615000Y00131500D02*
X00732669D01*
X00615000Y00142500D02*
X00728113D01*
X00615000Y00164500D02*
X00719000D01*
X00622000Y00148000D02*
X00725835D01*
X00615000Y00153500D02*
X00723556D01*
X00622000Y00159000D02*
X00721278D01*
X00590500Y00389000D02*
X00679222D01*
X00592778Y00394500D02*
X00681500D01*
X00558000Y00429278D02*
X00592778Y00394500D01*
X00552500Y00427000D02*
X00590500Y00389000D01*
X00558000Y00429278D02*
Y00446278D01*
X00552500Y00427000D02*
Y00444000D01*
X00545778Y00458500D02*
X00558000Y00446278D01*
X00543500Y00453000D02*
X00552500Y00444000D01*
X00383533Y00478227D02*
X00392260Y00469500D01*
X00383533Y00478227D02*
Y00489919D01*
X00358133Y00475127D02*
X00369260Y00464000D01*
X00358133Y00475127D02*
Y00489919D01*
X00472500Y00524500D02*
X00477219Y00529219D01*
X00524477D02*
X00528098Y00525598D01*
X00477219Y00529219D02*
X00524477D01*
X00542259Y00532741D02*
X00548500Y00526500D01*
X00459733Y00530733D02*
X00461741Y00532741D01*
X00542259D01*
X00548500Y00488694D02*
Y00526500D01*
X00548500Y00488694D02*
X00581003Y00456191D01*
X00459733Y00527500D02*
Y00530733D01*
X00600665Y00411000D02*
X00688556D01*
X00596109Y00400000D02*
X00684000D01*
X00598387Y00405500D02*
X00686278D01*
X00602944Y00416500D02*
X00690835D01*
X00605222Y00422000D02*
X00693113D01*
X00607500Y00427500D02*
X00695391D01*
X00575503Y00436162D02*
X00600665Y00411000D01*
X00564503Y00431606D02*
X00596109Y00400000D01*
X00570003Y00433884D02*
X00598387Y00405500D01*
X00581003Y00438440D02*
X00602944Y00416500D01*
X00586503Y00440719D02*
X00605222Y00422000D01*
X00592003Y00442997D02*
X00607500Y00427500D01*
X00586733Y00489919D02*
X00586733Y00467627D01*
X00592003Y00462357D01*
X00485133Y00478227D02*
Y00489919D01*
Y00478227D02*
X00493860Y00469500D01*
X00510533Y00482327D02*
Y00489919D01*
Y00482327D02*
X00517860Y00475000D01*
X00554416D01*
X00493860Y00469500D02*
X00552138D01*
X00561333Y00483640D02*
Y00489919D01*
X00554416Y00475000D02*
X00575503Y00453913D01*
X00561333Y00483640D02*
X00586503Y00458470D01*
X00552138Y00469500D02*
X00570003Y00451635D01*
X00549860Y00464000D02*
X00564503Y00449357D01*
X00575503Y00436162D02*
Y00453913D01*
X00564503Y00431606D02*
Y00449357D01*
X00570003Y00433884D02*
Y00451635D01*
X00592003Y00442997D02*
Y00462357D01*
X00581003Y00438440D02*
Y00456191D01*
X00586503Y00440719D02*
Y00458470D01*
X00799500Y00476000D02*
X00805173Y00481673D01*
X00627373Y00475127D02*
Y00489919D01*
Y00475127D02*
X00638500Y00464000D01*
X00652773Y00478227D02*
Y00489919D01*
Y00478227D02*
X00661500Y00469500D01*
X00678173Y00482327D02*
Y00489919D01*
Y00482327D02*
X00685500Y00475000D01*
X00703573Y00483927D02*
Y00489919D01*
Y00483927D02*
X00707000Y00480500D01*
X00685500Y00475000D02*
X00722056D01*
X00661500Y00469500D02*
X00719778D01*
X00638500Y00464000D02*
X00717500D01*
X00707000Y00480500D02*
X00724334D01*
X00728973Y00483640D02*
Y00489919D01*
X00805173Y00481673D02*
Y00489919D01*
D66*
X00371500Y00330000D02*
X00398000D01*
X00410000Y00342000D01*
D68*
X00478500Y00224000D02*
Y00256000D01*
Y00208000D02*
Y00224000D01*
X00522000D01*
X00563500D01*
X00478500Y00256000D02*
Y00277675D01*
X00465500Y00195000D02*
X00478500Y00208000D01*
X00471000Y00256000D02*
X00478500D01*
X00319000Y00256500D02*
X00342500D01*
X00353928Y00245072D02*
X00379500D01*
X00342500Y00256500D02*
X00353928Y00245072D01*
X00583624Y00299297D02*
X00591000Y00291922D01*
X00519164Y00299297D02*
X00583624D01*
X00591000Y00284500D02*
Y00291922D01*
X00565000Y00327000D02*
X00597000D01*
X00513367Y00293500D02*
X00519164Y00299297D01*
X00821630Y00297760D02*
X00831843Y00307973D01*
X00465500Y00137000D02*
Y00195000D01*
Y00137000D02*
X00465500Y00137000D01*
X00501000Y00293500D02*
X00513367D01*
X00491500D02*
X00501000D01*
Y00273000D02*
Y00293500D01*
X00495500Y00267500D02*
X00501000Y00273000D01*
X00500373Y00028573D02*
Y00049827D01*
X00478500Y00277675D02*
Y00294000D01*
X00491500Y00267500D02*
X00495500D01*
X00478500Y00277675D02*
X00478675Y00277500D01*
X00491500D01*
X00599500Y00276500D02*
X00607000Y00284000D01*
X00507015Y00327000D02*
X00565000D01*
X00607000Y00297500D02*
Y00317000D01*
X00591500Y00276500D02*
X00599500D01*
X00607000Y00284000D02*
Y00297500D01*
X00597000Y00327000D02*
X00607000Y00317000D01*
Y00297500D02*
X00616000D01*
X00486500Y00302000D02*
Y00334000D01*
X00478500Y00294000D02*
X00486500Y00302000D01*
X00383533Y00489919D02*
Y00511173D01*
X00358133Y00489919D02*
Y00511173D01*
X00535933D02*
Y00517763D01*
X00528098Y00525598D02*
X00535933Y00517763D01*
X00459733Y00511173D02*
X00459733Y00527500D01*
X00485133Y00489919D02*
Y00511173D01*
X00510533Y00489919D02*
X00510533Y00511173D01*
X00586733Y00489919D02*
Y00511173D01*
X00561333Y00489919D02*
Y00511173D01*
X00627373Y00489919D02*
Y00511173D01*
X00652773Y00489919D02*
Y00511173D01*
X00678173Y00489919D02*
X00678173Y00511173D01*
X00703573Y00489919D02*
Y00511173D01*
X00805173Y00489919D02*
Y00511173D01*
X00754373Y00489919D02*
Y00511173D01*
X00728973Y00489919D02*
Y00511173D01*
D69*
X00181904Y00463596D02*
X00212250Y00433250D01*
X00181904Y00463596D02*
Y00483480D01*
X00176654Y00485654D02*
X00181912Y00490912D01*
X00181904Y00483480D02*
X00185624Y00487200D01*
X00176654Y00461421D02*
Y00485654D01*
Y00461421D02*
X00210075Y00428000D01*
X00310876D01*
X00190574Y00487200D02*
X00190662Y00487288D01*
X00185624Y00487200D02*
X00190574D01*
X00181912Y00495862D02*
X00182000Y00495950D01*
X00181912Y00490912D02*
Y00495862D01*
X00310876Y00428000D02*
X00314376Y00424500D01*
Y00436750D02*
X00314500D01*
X00212250Y00433250D02*
X00310876D01*
X00314376Y00424500D02*
X00314500D01*
X00310876Y00433250D02*
X00314376Y00436750D01*
D72*
X00806443Y00307973D02*
D03*
X00831843D02*
D03*
X00806443Y00282573D02*
D03*
X00831843D02*
D03*
X00806443Y00257173D02*
D03*
X00831843D02*
D03*
D73*
X00309500Y00184000D02*
D03*
X00379500Y00245072D02*
D03*
X00319000Y00256500D02*
D03*
X00257000Y00249500D02*
D03*
X00259584Y00280738D02*
D03*
X00283500Y00301000D02*
D03*
X00314738Y00298416D02*
D03*
X00335000Y00274500D02*
D03*
X00332416Y00243262D02*
D03*
X00356104Y00224523D02*
D03*
X00365000Y00278000D02*
D03*
X00333477Y00322104D02*
D03*
X00280000Y00331000D02*
D03*
X00235896Y00299477D02*
D03*
X00227000Y00246000D02*
D03*
X00277262Y00225584D02*
D03*
X00308500Y00223000D02*
D03*
X00258523Y00201896D02*
D03*
X00312000Y00193000D02*
D03*
X00342500Y00105500D02*
D03*
X00367000Y00105500D02*
D03*
X00390000Y00113000D02*
D03*
X00385500Y00127500D02*
D03*
X00359500Y00124500D02*
D03*
X00328000D02*
D03*
X00300000Y00125000D02*
D03*
X00276500Y00110500D02*
D03*
X00238500Y00105500D02*
D03*
X00206000Y00059000D02*
D03*
X00199000Y00033000D02*
D03*
X00220500Y00105500D02*
D03*
X00233500Y00056000D02*
D03*
X00268500Y00103500D02*
D03*
X00255000Y00103500D02*
D03*
X00310000Y00103500D02*
D03*
X00285000D02*
D03*
X00403000Y00118500D02*
D03*
X00435500Y00311500D02*
D03*
X00418000Y00325500D02*
D03*
X00410000Y00342000D02*
D03*
X00461000Y00333000D02*
D03*
X00592000Y00337500D02*
D03*
X00612000D02*
D03*
X00576000D02*
D03*
X00651500Y00029000D02*
D03*
X00660000Y00049000D02*
D03*
X00649500Y00065000D02*
D03*
X00829000Y00167000D02*
D03*
X00809500Y00104500D02*
D03*
X00771500Y00106500D02*
D03*
X00441500Y00332500D02*
D03*
X00356500Y00340000D02*
D03*
X00371500Y00330000D02*
D03*
X00322500Y00394500D02*
D03*
X00165500Y00460000D02*
D03*
X00197000Y00466000D02*
D03*
X00256500Y00460500D02*
D03*
X00239000Y00461000D02*
D03*
X00299500Y00447500D02*
D03*
X00302000Y00479000D02*
D03*
X00304000Y00499500D02*
D03*
X00447000Y00453000D02*
D03*
X00822000Y00389000D02*
D03*
X00826000Y00358500D02*
D03*
X00412000Y00126000D02*
D03*
X00393000Y00146000D02*
D03*
X00310000Y00062500D02*
D03*
X00411500Y00050000D02*
D03*
X00412000Y00069500D02*
D03*
X00452000Y00052000D02*
D03*
X00438000Y00052500D02*
D03*
X00459000Y00066500D02*
D03*
X00444000Y00064000D02*
D03*
X00826000Y00217000D02*
D03*
X00827500Y00232500D02*
D03*
X00797500Y00230500D02*
D03*
X00798500Y00217500D02*
D03*
X00822000Y00056500D02*
D03*
X00821500Y00080000D02*
D03*
X00563500Y00206000D02*
D03*
X00455000Y00126500D02*
D03*
X00443000Y00128500D02*
D03*
X00492500Y00126500D02*
D03*
X00519000Y00125000D02*
D03*
X00545000Y00125500D02*
D03*
X00411500Y00379000D02*
D03*
X00381500Y00324000D02*
D03*
Y00337000D02*
D03*
X00399500Y00273500D02*
D03*
X00366000Y00236500D02*
D03*
X00378500Y00377500D02*
D03*
X00333000Y00415000D02*
D03*
X00349000Y00403000D02*
D03*
X00364000Y00390500D02*
D03*
X00271500Y00418000D02*
D03*
X00196000Y00502000D02*
D03*
X00152000Y00494500D02*
D03*
X00145500Y00460000D02*
D03*
X00198500Y00412500D02*
D03*
X00219500Y00417500D02*
D03*
X00217500Y00395500D02*
D03*
X00212500Y00347500D02*
D03*
X00245500Y00418000D02*
D03*
X00194000Y00375000D02*
D03*
X00179500Y00389500D02*
D03*
X00259000Y00056000D02*
D03*
X00335500Y00062000D02*
D03*
X00285000Y00061000D02*
D03*
X00360500Y00062000D02*
D03*
X00386000Y00062500D02*
D03*
X00396000Y00256500D02*
D03*
X00402500Y00232000D02*
D03*
X00378000Y00175000D02*
D03*
Y00204500D02*
D03*
X00452000Y00211000D02*
D03*
X00452500Y00234500D02*
D03*
X00441500Y00270000D02*
D03*
X00459500Y00272000D02*
D03*
X00423500Y00273500D02*
D03*
X00412000Y00303000D02*
D03*
X00464500Y00301000D02*
D03*
X00502000Y00344000D02*
D03*
X00487000Y00345000D02*
D03*
X00487500Y00381000D02*
D03*
X00505000Y00384500D02*
D03*
X00523000Y00382000D02*
D03*
X00524500Y00419500D02*
D03*
X00515500Y00429000D02*
D03*
X00531000Y00431500D02*
D03*
X00545000Y00422500D02*
D03*
X00556500Y00412500D02*
D03*
X00543500Y00404000D02*
D03*
X00508000Y00419000D02*
D03*
X00491500Y00418500D02*
D03*
X00476000Y00434500D02*
D03*
X00414000Y00432000D02*
D03*
X00433500Y00427500D02*
D03*
X00451500Y00413500D02*
D03*
X00464000Y00382000D02*
D03*
X00446000Y00383000D02*
D03*
X00427000Y00389000D02*
D03*
X00406500Y00400000D02*
D03*
X00388000Y00415500D02*
D03*
X00372000Y00432000D02*
D03*
X00339000Y00455000D02*
D03*
X00336500Y00477000D02*
D03*
X00330000Y00499500D02*
D03*
X00607000Y00491000D02*
D03*
X00608220Y00508086D02*
D03*
X00607500Y00472500D02*
D03*
X00800000Y00414000D02*
D03*
X00799500Y00373500D02*
D03*
X00807000Y00350500D02*
D03*
X00821000Y00334000D02*
D03*
X00819000Y00428000D02*
D03*
X00820500Y00458000D02*
D03*
X00801000Y00426500D02*
D03*
X00721000Y00418500D02*
D03*
X00739500Y00428500D02*
D03*
X00707000Y00433000D02*
D03*
X00742000Y00394000D02*
D03*
X00690000Y00358500D02*
D03*
X00679000Y00369000D02*
D03*
X00666500Y00381000D02*
D03*
X00692000Y00235500D02*
D03*
Y00244500D02*
D03*
X00692500Y00272000D02*
D03*
X00700000Y00278000D02*
D03*
X00692500Y00286500D02*
D03*
X00712500Y00174000D02*
D03*
X00712000Y00112000D02*
D03*
X00512000Y00160000D02*
D03*
X00528500Y00144500D02*
D03*
X00480500Y00143500D02*
D03*
X00452500Y00144500D02*
D03*
X00429000Y00146500D02*
D03*
X00414500Y00160000D02*
D03*
X00452500Y00162500D02*
D03*
X00476000Y00178000D02*
D03*
X00453500Y00180500D02*
D03*
X00498000Y00159500D02*
D03*
X00478500Y00159000D02*
D03*
X00516500Y00141000D02*
D03*
X00512000Y00176000D02*
D03*
Y00191500D02*
D03*
X00649500Y00227000D02*
D03*
Y00248000D02*
D03*
X00641000Y00267500D02*
D03*
X00626000Y00286000D02*
D03*
X00647000Y00276500D02*
D03*
X00509000Y00316000D02*
D03*
X00523000Y00284000D02*
D03*
Y00268000D02*
D03*
X00567000Y00253000D02*
D03*
X00552500D02*
D03*
X00539000D02*
D03*
X00524500Y00253500D02*
D03*
X00174929Y00503021D02*
D03*
X00197733Y00480217D02*
D03*
X00190662Y00487288D02*
D03*
X00182000Y00495950D02*
D03*
X00314500Y00424500D02*
D03*
Y00436750D02*
D03*
Y00414500D02*
D03*
Y00446750D02*
D03*
X00297500Y00418500D02*
D03*
X00267500Y00395000D02*
D03*
X00180500Y00515000D02*
D03*
X00160500D02*
D03*
X00150500D02*
D03*
X00170500D02*
D03*
X00190500D02*
D03*
X00809500Y00232500D02*
D03*
X00699500Y00347000D02*
D03*
X00465500Y00137000D02*
D03*
X00420272Y00310500D02*
D03*
X00721000Y00107000D02*
D03*
X00726500Y00114000D02*
D03*
X00732000Y00107000D02*
D03*
X00737500Y00114000D02*
D03*
X00743000Y00107000D02*
D03*
X00748500Y00114000D02*
D03*
X00759500D02*
D03*
X00754000Y00107000D02*
D03*
X00692500Y00300500D02*
D03*
X00699500Y00295000D02*
D03*
Y00306000D02*
D03*
X00692500Y00311500D02*
D03*
X00699500Y00317000D02*
D03*
X00692500Y00322500D02*
D03*
X00699500Y00328000D02*
D03*
X00692500Y00333500D02*
D03*
X00642000Y00333500D02*
D03*
X00649000Y00328000D02*
D03*
X00642000Y00322500D02*
D03*
X00649000Y00317000D02*
D03*
X00642000Y00311500D02*
D03*
X00649000Y00306000D02*
D03*
Y00295000D02*
D03*
X00642000Y00241000D02*
D03*
Y00300500D02*
D03*
X00698000Y00263000D02*
D03*
Y00254500D02*
D03*
X00567500Y00280000D02*
D03*
Y00272000D02*
D03*
X00845000Y00089000D02*
D03*
X00165000Y00530000D02*
D03*
X00185000D02*
D03*
X00205000D02*
D03*
X00225000D02*
D03*
X00245000D02*
D03*
X00265000D02*
D03*
X00285000D02*
D03*
X00305000D02*
D03*
X00343500Y00531500D02*
D03*
X00371000Y00526000D02*
D03*
X00317000Y00464000D02*
D03*
X00395000Y00530000D02*
D03*
X00420000D02*
D03*
X00450000D02*
D03*
X00555000D02*
D03*
X00575000D02*
D03*
X00595000D02*
D03*
X00615000D02*
D03*
X00640000D02*
D03*
X00665000D02*
D03*
X00690000D02*
D03*
X00715000D02*
D03*
X00745000D02*
D03*
X00770000D02*
D03*
X00795000D02*
D03*
X00815000D02*
D03*
X00835858Y00529142D02*
D03*
X00843000Y00519000D02*
D03*
X00845000Y00505000D02*
D03*
Y00460000D02*
D03*
Y00440000D02*
D03*
Y00420000D02*
D03*
Y00400000D02*
D03*
Y00380000D02*
D03*
Y00360000D02*
D03*
Y00340000D02*
D03*
Y00320000D02*
D03*
Y00270000D02*
D03*
Y00245000D02*
D03*
Y00224000D02*
D03*
Y00185000D02*
D03*
Y00150000D02*
D03*
X00846000Y00119000D02*
D03*
X00845000Y00071000D02*
D03*
Y00051000D02*
D03*
X00842000Y00024000D02*
D03*
X00820000Y00010000D02*
D03*
X00790000D02*
D03*
X00765000D02*
D03*
X00740000D02*
D03*
X00715000D02*
D03*
X00690000D02*
D03*
X00660000D02*
D03*
X00640000D02*
D03*
X00160000Y00410000D02*
D03*
Y00390000D02*
D03*
Y00370000D02*
D03*
Y00350000D02*
D03*
Y00330000D02*
D03*
Y00310000D02*
D03*
Y00290000D02*
D03*
Y00270000D02*
D03*
Y00250000D02*
D03*
Y00230000D02*
D03*
Y00210000D02*
D03*
Y00190000D02*
D03*
Y00170000D02*
D03*
Y00150000D02*
D03*
Y00130000D02*
D03*
Y00110000D02*
D03*
Y00090000D02*
D03*
Y00070000D02*
D03*
Y00050000D02*
D03*
Y00030000D02*
D03*
X00420000Y00010000D02*
D03*
X00410000D02*
D03*
X00385000D02*
D03*
X00360000D02*
D03*
X00335000D02*
D03*
X00310000D02*
D03*
X00285000D02*
D03*
X00260000D02*
D03*
X00235000D02*
D03*
X00207500D02*
D03*
X00180000D02*
D03*
X00160000D02*
D03*
X00633957Y00347000D02*
D03*
X00615000Y00120500D02*
D03*
X00564500Y00057000D02*
D03*
X00781088Y00116500D02*
D03*
X00445500Y00399500D02*
D03*
X00666000Y00068500D02*
D03*
X00767000Y00059500D02*
D03*
X00666000Y00059000D02*
D03*
X00792500Y00062000D02*
D03*
X00514500Y00207500D02*
D03*
X00489500Y00205300D02*
D03*
X00446500Y00246000D02*
D03*
X00471000Y00256000D02*
D03*
X00489550Y00197300D02*
D03*
X00467500Y00267500D02*
D03*
X00507015Y00327000D02*
D03*
X00467500Y00277500D02*
D03*
X00467500Y00293500D02*
D03*
X00516000Y00343500D02*
D03*
X00491500Y00267500D02*
D03*
Y00277500D02*
D03*
X00491500Y00293500D02*
D03*
X00475000Y00303500D02*
D03*
X00475000Y00315000D02*
D03*
X00486500Y00334000D02*
D03*
X00591500Y00276500D02*
D03*
X00534000Y00263500D02*
D03*
Y00275500D02*
D03*
X00546000Y00263500D02*
D03*
Y00275500D02*
D03*
X00563500Y00224000D02*
D03*
X00558000Y00263500D02*
D03*
Y00275500D02*
D03*
Y00287500D02*
D03*
X00563500Y00215000D02*
D03*
X00591000Y00284500D02*
D03*
X00534000Y00287500D02*
D03*
X00546000D02*
D03*
X00565000Y00336000D02*
D03*
Y00327000D02*
D03*
X00616000Y00287500D02*
D03*
X00446500Y00256000D02*
D03*
X00616000Y00297500D02*
D03*
X00616000Y00277500D02*
D03*
X00614947Y00193000D02*
D03*
X00621947Y00198500D02*
D03*
X00628500Y00275000D02*
D03*
X00522000Y00224000D02*
D03*
X00621947Y00176500D02*
D03*
X00621447Y00187500D02*
D03*
X00640000Y00227500D02*
D03*
X00614947Y00182000D02*
D03*
Y00204000D02*
D03*
X00614000Y00221000D02*
D03*
X00607990Y00214990D02*
D03*
X00615000Y00142500D02*
D03*
X00622000Y00126000D02*
D03*
X00615000Y00164500D02*
D03*
Y00153500D02*
D03*
X00622000Y00137000D02*
D03*
X00615000Y00131500D02*
D03*
X00621500Y00148000D02*
D03*
X00622000Y00159000D02*
D03*
X00792500Y00459500D02*
D03*
X00277893Y00469393D02*
D03*
X00217893Y00469393D02*
D03*
X00828607Y00137893D02*
D03*
Y00197893D02*
D03*
D74*
X00398773Y00028573D02*
D03*
X00373373D02*
D03*
X00347973D02*
D03*
X00322573D02*
D03*
X00297173D02*
D03*
X00271773D02*
D03*
X00246373D02*
D03*
X00220973D02*
D03*
X00627373Y00511173D02*
D03*
X00358133D02*
D03*
X00652773D02*
D03*
X00383533D02*
D03*
X00678173D02*
D03*
X00408933D02*
D03*
X00703573D02*
D03*
X00434333D02*
D03*
X00728973D02*
D03*
X00459733D02*
D03*
X00754373D02*
D03*
X00485133D02*
D03*
X00779773D02*
D03*
X00510533D02*
D03*
X00805173D02*
D03*
X00535933D02*
D03*
X00561333D02*
D03*
X00586733D02*
D03*
X00779773Y00028573D02*
D03*
X00805173D02*
D03*
X00449573D02*
D03*
X00474973D02*
D03*
X00500373D02*
D03*
X00525773D02*
D03*
X00551173D02*
D03*
X00576573D02*
D03*
X00601973D02*
D03*
X00627373D02*
D03*
X00678173D02*
D03*
X00703573D02*
D03*
X00728973D02*
D03*
X00754373D02*
D03*
M02*
