G04*
G04 #@! TF.GenerationSoftware,Altium Limited,Altium Designer,21.1.1 (26)*
G04*
G04 Layer_Color=16776960*
%FSAX44Y44*%
%MOMM*%
G71*
G04*
G04 #@! TF.SameCoordinates,35B4BD9A-10F4-4648-9EF8-68C66FDF8F35*
G04*
G04*
G04 #@! TF.FilePolarity,Positive*
G04*
G01*
G75*
%ADD67C,1.0000*%
%ADD76C,0.1000*%
D67*
X00145000Y00165000D02*
Y00255000D01*
D76*
X00140000Y00165000D02*
G03*
X00150000Y00165000I00005000J00000000D01*
G01*
Y00255000D02*
G03*
X00140000Y00255000I-00005000J00000000D01*
G01*
X00150000Y00115000D02*
G03*
X00140000Y00115000I-00005000J00000000D01*
G01*
Y00305000D02*
G03*
X00150000Y00305000I00005000J00000000D01*
G01*
Y00415000D02*
G03*
X00145000Y00420000I-00005000J00000000D01*
G01*
X00000000Y00030000D02*
G03*
X00030000Y00000000I00030000J00000000D01*
G01*
X00826000D02*
G03*
X00856000Y00030000I00000000J00030000D01*
G01*
Y00510000D02*
G03*
X00826000Y00540000I-00030000J00000000D01*
G01*
X00140000Y00255000D02*
X00140000Y00165000D01*
X00150000D02*
Y00255000D01*
X00140000Y00410000D02*
X00140000Y00305000D01*
X00150000D02*
Y00415000D01*
X00000000Y00410000D02*
X00140000Y00410000D01*
X-00000000Y00420000D02*
X00145000Y00420000D01*
X00140000Y00000000D02*
Y00115000D01*
X00150000D02*
X00150000Y-00000000D01*
X00030000Y00000000D02*
X00140000D01*
X00150000Y-00000000D02*
X00826000Y00000000D01*
X-00000000Y00420000D02*
Y00540000D01*
X-00000000Y00410000D02*
X-00000000Y00030000D01*
X00856000Y00510000D02*
X00856000Y00030000D01*
X00000000Y00540000D02*
X00826000Y00540000D01*
M02*
