G04*
G04 #@! TF.GenerationSoftware,Altium Limited,Altium Designer,21.1.1 (26)*
G04*
G04 Layer_Color=8388736*
%FSAX44Y44*%
%MOMM*%
G71*
G04*
G04 #@! TF.SameCoordinates,35B4BD9A-10F4-4648-9EF8-68C66FDF8F35*
G04*
G04*
G04 #@! TF.FilePolarity,Negative*
G04*
G01*
G75*
%ADD33R,2.2000X1.8500*%
G04:AMPARAMS|DCode=34|XSize=0.8mm|YSize=0.35mm|CornerRadius=0.1125mm|HoleSize=0mm|Usage=FLASHONLY|Rotation=90.000|XOffset=0mm|YOffset=0mm|HoleType=Round|Shape=RoundedRectangle|*
%AMROUNDEDRECTD34*
21,1,0.8000,0.1250,0,0,90.0*
21,1,0.5750,0.3500,0,0,90.0*
1,1,0.2250,0.0625,0.2875*
1,1,0.2250,0.0625,-0.2875*
1,1,0.2250,-0.0625,-0.2875*
1,1,0.2250,-0.0625,0.2875*
%
%ADD34ROUNDEDRECTD34*%
G04:AMPARAMS|DCode=35|XSize=1.7mm|YSize=0.5mm|CornerRadius=0.15mm|HoleSize=0mm|Usage=FLASHONLY|Rotation=180.000|XOffset=0mm|YOffset=0mm|HoleType=Round|Shape=RoundedRectangle|*
%AMROUNDEDRECTD35*
21,1,1.7000,0.2000,0,0,180.0*
21,1,1.4000,0.5000,0,0,180.0*
1,1,0.3000,-0.7000,0.1000*
1,1,0.3000,0.7000,0.1000*
1,1,0.3000,0.7000,-0.1000*
1,1,0.3000,-0.7000,-0.1000*
%
%ADD35ROUNDEDRECTD35*%
G04:AMPARAMS|DCode=36|XSize=1.3mm|YSize=1.1mm|CornerRadius=0.3mm|HoleSize=0mm|Usage=FLASHONLY|Rotation=180.000|XOffset=0mm|YOffset=0mm|HoleType=Round|Shape=RoundedRectangle|*
%AMROUNDEDRECTD36*
21,1,1.3000,0.5000,0,0,180.0*
21,1,0.7000,1.1000,0,0,180.0*
1,1,0.6000,-0.3500,0.2500*
1,1,0.6000,0.3500,0.2500*
1,1,0.6000,0.3500,-0.2500*
1,1,0.6000,-0.3500,-0.2500*
%
%ADD36ROUNDEDRECTD36*%
G04:AMPARAMS|DCode=37|XSize=1.3mm|YSize=1.1mm|CornerRadius=0.15mm|HoleSize=0mm|Usage=FLASHONLY|Rotation=180.000|XOffset=0mm|YOffset=0mm|HoleType=Round|Shape=RoundedRectangle|*
%AMROUNDEDRECTD37*
21,1,1.3000,0.8000,0,0,180.0*
21,1,1.0000,1.1000,0,0,180.0*
1,1,0.3000,-0.5000,0.4000*
1,1,0.3000,0.5000,0.4000*
1,1,0.3000,0.5000,-0.4000*
1,1,0.3000,-0.5000,-0.4000*
%
%ADD37ROUNDEDRECTD37*%
G04:AMPARAMS|DCode=38|XSize=0.6mm|YSize=0.6mm|CornerRadius=0.175mm|HoleSize=0mm|Usage=FLASHONLY|Rotation=90.000|XOffset=0mm|YOffset=0mm|HoleType=Round|Shape=RoundedRectangle|*
%AMROUNDEDRECTD38*
21,1,0.6000,0.2500,0,0,90.0*
21,1,0.2500,0.6000,0,0,90.0*
1,1,0.3500,0.1250,0.1250*
1,1,0.3500,0.1250,-0.1250*
1,1,0.3500,-0.1250,-0.1250*
1,1,0.3500,-0.1250,0.1250*
%
%ADD38ROUNDEDRECTD38*%
G04:AMPARAMS|DCode=39|XSize=0.8mm|YSize=0.8mm|CornerRadius=0.19mm|HoleSize=0mm|Usage=FLASHONLY|Rotation=90.000|XOffset=0mm|YOffset=0mm|HoleType=Round|Shape=RoundedRectangle|*
%AMROUNDEDRECTD39*
21,1,0.8000,0.4200,0,0,90.0*
21,1,0.4200,0.8000,0,0,90.0*
1,1,0.3800,0.2100,0.2100*
1,1,0.3800,0.2100,-0.2100*
1,1,0.3800,-0.2100,-0.2100*
1,1,0.3800,-0.2100,0.2100*
%
%ADD39ROUNDEDRECTD39*%
G04:AMPARAMS|DCode=40|XSize=0.6mm|YSize=0.6mm|CornerRadius=0.175mm|HoleSize=0mm|Usage=FLASHONLY|Rotation=0.000|XOffset=0mm|YOffset=0mm|HoleType=Round|Shape=RoundedRectangle|*
%AMROUNDEDRECTD40*
21,1,0.6000,0.2500,0,0,0.0*
21,1,0.2500,0.6000,0,0,0.0*
1,1,0.3500,0.1250,-0.1250*
1,1,0.3500,-0.1250,-0.1250*
1,1,0.3500,-0.1250,0.1250*
1,1,0.3500,0.1250,0.1250*
%
%ADD40ROUNDEDRECTD40*%
G04:AMPARAMS|DCode=41|XSize=0.8mm|YSize=0.8mm|CornerRadius=0.19mm|HoleSize=0mm|Usage=FLASHONLY|Rotation=45.000|XOffset=0mm|YOffset=0mm|HoleType=Round|Shape=RoundedRectangle|*
%AMROUNDEDRECTD41*
21,1,0.8000,0.4200,0,0,45.0*
21,1,0.4200,0.8000,0,0,45.0*
1,1,0.3800,0.2970,0.0000*
1,1,0.3800,0.0000,-0.2970*
1,1,0.3800,-0.2970,0.0000*
1,1,0.3800,0.0000,0.2970*
%
%ADD41ROUNDEDRECTD41*%
G04:AMPARAMS|DCode=42|XSize=0.6mm|YSize=0.6mm|CornerRadius=0.175mm|HoleSize=0mm|Usage=FLASHONLY|Rotation=315.000|XOffset=0mm|YOffset=0mm|HoleType=Round|Shape=RoundedRectangle|*
%AMROUNDEDRECTD42*
21,1,0.6000,0.2500,0,0,315.0*
21,1,0.2500,0.6000,0,0,315.0*
1,1,0.3500,0.0000,-0.1768*
1,1,0.3500,-0.1768,0.0000*
1,1,0.3500,0.0000,0.1768*
1,1,0.3500,0.1768,0.0000*
%
%ADD42ROUNDEDRECTD42*%
G04:AMPARAMS|DCode=43|XSize=0.8mm|YSize=0.8mm|CornerRadius=0.19mm|HoleSize=0mm|Usage=FLASHONLY|Rotation=0.000|XOffset=0mm|YOffset=0mm|HoleType=Round|Shape=RoundedRectangle|*
%AMROUNDEDRECTD43*
21,1,0.8000,0.4200,0,0,0.0*
21,1,0.4200,0.8000,0,0,0.0*
1,1,0.3800,0.2100,-0.2100*
1,1,0.3800,-0.2100,-0.2100*
1,1,0.3800,-0.2100,0.2100*
1,1,0.3800,0.2100,0.2100*
%
%ADD43ROUNDEDRECTD43*%
G04:AMPARAMS|DCode=44|XSize=0.8mm|YSize=0.8mm|CornerRadius=0.19mm|HoleSize=0mm|Usage=FLASHONLY|Rotation=315.000|XOffset=0mm|YOffset=0mm|HoleType=Round|Shape=RoundedRectangle|*
%AMROUNDEDRECTD44*
21,1,0.8000,0.4200,0,0,315.0*
21,1,0.4200,0.8000,0,0,315.0*
1,1,0.3800,0.0000,-0.2970*
1,1,0.3800,-0.2970,0.0000*
1,1,0.3800,0.0000,0.2970*
1,1,0.3800,0.2970,0.0000*
%
%ADD44ROUNDEDRECTD44*%
G04:AMPARAMS|DCode=45|XSize=0.6mm|YSize=0.6mm|CornerRadius=0.175mm|HoleSize=0mm|Usage=FLASHONLY|Rotation=225.000|XOffset=0mm|YOffset=0mm|HoleType=Round|Shape=RoundedRectangle|*
%AMROUNDEDRECTD45*
21,1,0.6000,0.2500,0,0,225.0*
21,1,0.2500,0.6000,0,0,225.0*
1,1,0.3500,-0.1768,0.0000*
1,1,0.3500,0.0000,0.1768*
1,1,0.3500,0.1768,0.0000*
1,1,0.3500,0.0000,-0.1768*
%
%ADD45ROUNDEDRECTD45*%
G04:AMPARAMS|DCode=46|XSize=0.7mm|YSize=1.1mm|CornerRadius=0.2mm|HoleSize=0mm|Usage=FLASHONLY|Rotation=90.000|XOffset=0mm|YOffset=0mm|HoleType=Round|Shape=RoundedRectangle|*
%AMROUNDEDRECTD46*
21,1,0.7000,0.7000,0,0,90.0*
21,1,0.3000,1.1000,0,0,90.0*
1,1,0.4000,0.3500,0.1500*
1,1,0.4000,0.3500,-0.1500*
1,1,0.4000,-0.3500,-0.1500*
1,1,0.4000,-0.3500,0.1500*
%
%ADD46ROUNDEDRECTD46*%
G04:AMPARAMS|DCode=47|XSize=0.85mm|YSize=0.9mm|CornerRadius=0.2375mm|HoleSize=0mm|Usage=FLASHONLY|Rotation=270.000|XOffset=0mm|YOffset=0mm|HoleType=Round|Shape=RoundedRectangle|*
%AMROUNDEDRECTD47*
21,1,0.8500,0.4250,0,0,270.0*
21,1,0.3750,0.9000,0,0,270.0*
1,1,0.4750,-0.2125,-0.1875*
1,1,0.4750,-0.2125,0.1875*
1,1,0.4750,0.2125,0.1875*
1,1,0.4750,0.2125,-0.1875*
%
%ADD47ROUNDEDRECTD47*%
%ADD48R,13.4000X2.5000*%
%ADD49R,12.4000X1.9000*%
G04:AMPARAMS|DCode=50|XSize=0.55mm|YSize=0.6mm|CornerRadius=0.1625mm|HoleSize=0mm|Usage=FLASHONLY|Rotation=270.000|XOffset=0mm|YOffset=0mm|HoleType=Round|Shape=RoundedRectangle|*
%AMROUNDEDRECTD50*
21,1,0.5500,0.2750,0,0,270.0*
21,1,0.2250,0.6000,0,0,270.0*
1,1,0.3250,-0.1375,-0.1125*
1,1,0.3250,-0.1375,0.1125*
1,1,0.3250,0.1375,0.1125*
1,1,0.3250,0.1375,-0.1125*
%
%ADD50ROUNDEDRECTD50*%
G04:AMPARAMS|DCode=51|XSize=0.55mm|YSize=0.6mm|CornerRadius=0.1625mm|HoleSize=0mm|Usage=FLASHONLY|Rotation=0.000|XOffset=0mm|YOffset=0mm|HoleType=Round|Shape=RoundedRectangle|*
%AMROUNDEDRECTD51*
21,1,0.5500,0.2750,0,0,0.0*
21,1,0.2250,0.6000,0,0,0.0*
1,1,0.3250,0.1125,-0.1375*
1,1,0.3250,-0.1125,-0.1375*
1,1,0.3250,-0.1125,0.1375*
1,1,0.3250,0.1125,0.1375*
%
%ADD51ROUNDEDRECTD51*%
%ADD52C,3.0000*%
G04:AMPARAMS|DCode=53|XSize=3.3mm|YSize=3.3mm|CornerRadius=0.21mm|HoleSize=0mm|Usage=FLASHONLY|Rotation=90.000|XOffset=0mm|YOffset=0mm|HoleType=Round|Shape=RoundedRectangle|*
%AMROUNDEDRECTD53*
21,1,3.3000,2.8800,0,0,90.0*
21,1,2.8800,3.3000,0,0,90.0*
1,1,0.4200,1.4400,1.4400*
1,1,0.4200,1.4400,-1.4400*
1,1,0.4200,-1.4400,-1.4400*
1,1,0.4200,-1.4400,1.4400*
%
%ADD53ROUNDEDRECTD53*%
G04:AMPARAMS|DCode=54|XSize=0.3mm|YSize=0.9mm|CornerRadius=0.125mm|HoleSize=0mm|Usage=FLASHONLY|Rotation=90.000|XOffset=0mm|YOffset=0mm|HoleType=Round|Shape=RoundedRectangle|*
%AMROUNDEDRECTD54*
21,1,0.3000,0.6500,0,0,90.0*
21,1,0.0500,0.9000,0,0,90.0*
1,1,0.2500,0.3250,0.0250*
1,1,0.2500,0.3250,-0.0250*
1,1,0.2500,-0.3250,-0.0250*
1,1,0.2500,-0.3250,0.0250*
%
%ADD54ROUNDEDRECTD54*%
G04:AMPARAMS|DCode=55|XSize=0.9mm|YSize=0.3mm|CornerRadius=0.125mm|HoleSize=0mm|Usage=FLASHONLY|Rotation=90.000|XOffset=0mm|YOffset=0mm|HoleType=Round|Shape=RoundedRectangle|*
%AMROUNDEDRECTD55*
21,1,0.9000,0.0500,0,0,90.0*
21,1,0.6500,0.3000,0,0,90.0*
1,1,0.2500,0.0250,0.3250*
1,1,0.2500,0.0250,-0.3250*
1,1,0.2500,-0.0250,-0.3250*
1,1,0.2500,-0.0250,0.3250*
%
%ADD55ROUNDEDRECTD55*%
G04:AMPARAMS|DCode=56|XSize=0.9mm|YSize=1.3mm|CornerRadius=0.25mm|HoleSize=0mm|Usage=FLASHONLY|Rotation=0.000|XOffset=0mm|YOffset=0mm|HoleType=Round|Shape=RoundedRectangle|*
%AMROUNDEDRECTD56*
21,1,0.9000,0.8000,0,0,0.0*
21,1,0.4000,1.3000,0,0,0.0*
1,1,0.5000,0.2000,-0.4000*
1,1,0.5000,-0.2000,-0.4000*
1,1,0.5000,-0.2000,0.4000*
1,1,0.5000,0.2000,0.4000*
%
%ADD56ROUNDEDRECTD56*%
G04:AMPARAMS|DCode=57|XSize=0.9mm|YSize=1.3mm|CornerRadius=0.25mm|HoleSize=0mm|Usage=FLASHONLY|Rotation=270.000|XOffset=0mm|YOffset=0mm|HoleType=Round|Shape=RoundedRectangle|*
%AMROUNDEDRECTD57*
21,1,0.9000,0.8000,0,0,270.0*
21,1,0.4000,1.3000,0,0,270.0*
1,1,0.5000,-0.4000,-0.2000*
1,1,0.5000,-0.4000,0.2000*
1,1,0.5000,0.4000,0.2000*
1,1,0.5000,0.4000,-0.2000*
%
%ADD57ROUNDEDRECTD57*%
%ADD58O,1.1000X10.1000*%
G04:AMPARAMS|DCode=59|XSize=2.1mm|YSize=1.7mm|CornerRadius=0.65mm|HoleSize=0mm|Usage=FLASHONLY|Rotation=90.000|XOffset=0mm|YOffset=0mm|HoleType=Round|Shape=RoundedRectangle|*
%AMROUNDEDRECTD59*
21,1,2.1000,0.4000,0,0,90.0*
21,1,0.8000,1.7000,0,0,90.0*
1,1,1.3000,0.2000,0.4000*
1,1,1.3000,0.2000,-0.4000*
1,1,1.3000,-0.2000,-0.4000*
1,1,1.3000,-0.2000,0.4000*
%
%ADD59ROUNDEDRECTD59*%
%ADD60C,0.4000*%
G04:AMPARAMS|DCode=61|XSize=1.9mm|YSize=1.7mm|CornerRadius=0.45mm|HoleSize=0mm|Usage=FLASHONLY|Rotation=0.000|XOffset=0mm|YOffset=0mm|HoleType=Round|Shape=RoundedRectangle|*
%AMROUNDEDRECTD61*
21,1,1.9000,0.8000,0,0,0.0*
21,1,1.0000,1.7000,0,0,0.0*
1,1,0.9000,0.5000,-0.4000*
1,1,0.9000,-0.5000,-0.4000*
1,1,0.9000,-0.5000,0.4000*
1,1,0.9000,0.5000,0.4000*
%
%ADD61ROUNDEDRECTD61*%
G36*
X00357598Y00188993D02*
X00357692Y00188964D01*
X00357779Y00188918D01*
X00357855Y00188855D01*
X00357918Y00188779D01*
X00357964Y00188692D01*
X00357993Y00188598D01*
X00358002Y00188500D01*
Y00173500D01*
X00357993Y00173402D01*
X00357964Y00173308D01*
X00357918Y00173221D01*
X00357855Y00173145D01*
X00357779Y00173082D01*
X00357692Y00173036D01*
X00357598Y00173007D01*
X00357500Y00172998D01*
X00356761D01*
X00356663Y00173007D01*
X00356663Y00173007D01*
X00355214Y00173295D01*
X00355120Y00173324D01*
X00353755Y00173889D01*
X00353755Y00173889D01*
X00353709Y00173914D01*
X00353668Y00173936D01*
X00353668Y00173936D01*
X00352440Y00174757D01*
X00352440Y00174757D01*
X00352398Y00174791D01*
X00352364Y00174819D01*
X00352364Y00174819D01*
X00351842Y00175341D01*
X00351841Y00175342D01*
X00351319Y00175864D01*
Y00175864D01*
X00351319D01*
X00351257Y00175940D01*
X00350436Y00177168D01*
X00350436Y00177168D01*
X00350389Y00177255D01*
X00349824Y00178620D01*
X00349824Y00178620D01*
X00349795Y00178714D01*
X00349507Y00180163D01*
X00349498Y00180261D01*
Y00181000D01*
Y00181739D01*
X00349507Y00181837D01*
X00349507Y00181837D01*
X00349795Y00183286D01*
X00349824Y00183380D01*
X00350389Y00184745D01*
X00350389Y00184745D01*
X00350414Y00184791D01*
X00350436Y00184832D01*
X00350436Y00184832D01*
X00351256Y00186060D01*
X00351257Y00186060D01*
X00351319Y00186136D01*
X00351842Y00186659D01*
X00352364Y00187181D01*
X00352364D01*
Y00187181D01*
X00352440Y00187243D01*
X00353668Y00188064D01*
X00353668Y00188064D01*
X00353755Y00188111D01*
X00355120Y00188676D01*
X00355120Y00188676D01*
X00355214Y00188704D01*
X00356663Y00188993D01*
X00356761Y00189002D01*
X00357500D01*
X00357598Y00188993D01*
D02*
G37*
G36*
X00363337D02*
X00364786Y00188704D01*
X00364880Y00188676D01*
X00364880Y00188676D01*
X00366245Y00188111D01*
X00366332Y00188064D01*
X00366332Y00188064D01*
X00367560Y00187243D01*
X00367636Y00187181D01*
Y00187181D01*
X00367636D01*
X00368158Y00186659D01*
X00368681Y00186136D01*
X00368743Y00186060D01*
X00368744Y00186060D01*
X00369564Y00184832D01*
X00369564Y00184832D01*
X00369586Y00184791D01*
X00369611Y00184745D01*
X00369611Y00184745D01*
X00370176Y00183380D01*
X00370205Y00183286D01*
X00370493Y00181837D01*
X00370502Y00181739D01*
Y00181000D01*
Y00180261D01*
X00370493Y00180163D01*
X00370205Y00178714D01*
X00370176Y00178620D01*
X00370176Y00178620D01*
X00369611Y00177255D01*
X00369564Y00177168D01*
X00369564Y00177168D01*
X00368743Y00175940D01*
X00368681Y00175864D01*
X00368681D01*
Y00175864D01*
X00368159Y00175342D01*
X00368159Y00175341D01*
X00368158Y00175341D01*
X00368158Y00175341D01*
X00367636Y00174819D01*
X00367636Y00174819D01*
X00367602Y00174791D01*
X00367560Y00174757D01*
X00367560Y00174757D01*
X00366332Y00173936D01*
X00366332Y00173936D01*
X00366291Y00173914D01*
X00366245Y00173889D01*
X00366245Y00173889D01*
X00364880Y00173324D01*
X00364786Y00173295D01*
X00363337Y00173007D01*
X00363337Y00173007D01*
X00363239Y00172998D01*
X00362500D01*
X00362402Y00173007D01*
X00362308Y00173036D01*
X00362221Y00173082D01*
X00362145Y00173145D01*
X00362082Y00173221D01*
X00362036Y00173308D01*
X00362007Y00173402D01*
X00361998Y00173500D01*
Y00188500D01*
X00362007Y00188598D01*
X00362036Y00188692D01*
X00362082Y00188779D01*
X00362145Y00188855D01*
X00362221Y00188918D01*
X00362308Y00188964D01*
X00362402Y00188993D01*
X00362500Y00189002D01*
X00363239D01*
X00363337Y00188993D01*
D02*
G37*
D33*
X00188497Y00136250D02*
D03*
D34*
X00474500Y00217750D02*
D03*
X00479500D02*
D03*
X00484500D02*
D03*
X00489500D02*
D03*
Y00244250D02*
D03*
X00484500D02*
D03*
X00479500D02*
D03*
X00474500D02*
D03*
D35*
X00482000Y00231000D02*
D03*
D36*
X00611500Y00254000D02*
D03*
Y00241000D02*
D03*
X00628500D02*
D03*
D37*
Y00254000D02*
D03*
D38*
X00257000Y00267500D02*
D03*
Y00258500D02*
D03*
X00335000Y00256500D02*
D03*
Y00265500D02*
D03*
X00468500Y00333000D02*
D03*
Y00342000D02*
D03*
X00418000Y00333000D02*
D03*
Y00342000D02*
D03*
X00556000Y00215000D02*
D03*
Y00224000D02*
D03*
X00557500Y00336000D02*
D03*
Y00327000D02*
D03*
X00516000Y00336000D02*
D03*
Y00327000D02*
D03*
X00514500Y00215000D02*
D03*
Y00224000D02*
D03*
X00463500Y00196000D02*
D03*
Y00205000D02*
D03*
Y00225000D02*
D03*
Y00216000D02*
D03*
D39*
X00290500Y00331000D02*
D03*
Y00313000D02*
D03*
X00301500D02*
D03*
Y00331000D02*
D03*
Y00193000D02*
D03*
Y00211000D02*
D03*
X00290500D02*
D03*
Y00193000D02*
D03*
D40*
X00301500Y00301000D02*
D03*
X00292500D02*
D03*
X00290500Y00223000D02*
D03*
X00299500D02*
D03*
X00442000Y00281500D02*
D03*
X00451000D02*
D03*
X00454000Y00256000D02*
D03*
X00463000D02*
D03*
X00451000Y00292000D02*
D03*
X00442000D02*
D03*
X00628500Y00267500D02*
D03*
X00619500D02*
D03*
X00608500Y00277500D02*
D03*
X00599500D02*
D03*
X00608500Y00267500D02*
D03*
X00599500D02*
D03*
Y00297500D02*
D03*
X00608500D02*
D03*
X00608500Y00287500D02*
D03*
X00599500D02*
D03*
X00632500Y00227500D02*
D03*
X00623500D02*
D03*
X00482500Y00315000D02*
D03*
X00491500D02*
D03*
X00475000Y00293500D02*
D03*
X00484000D02*
D03*
X00482500Y00303500D02*
D03*
X00491500D02*
D03*
X00475000Y00277500D02*
D03*
X00484000D02*
D03*
X00475000Y00267500D02*
D03*
X00484000D02*
D03*
X00491500Y00325000D02*
D03*
X00482500D02*
D03*
X00454000Y00246000D02*
D03*
X00463000D02*
D03*
D41*
X00340901Y00314680D02*
D03*
X00328173Y00301952D02*
D03*
X00335951Y00294173D02*
D03*
X00348679Y00306901D02*
D03*
X00251099Y00209321D02*
D03*
X00263827Y00222048D02*
D03*
X00256049Y00229827D02*
D03*
X00243321Y00217099D02*
D03*
D42*
X00327466Y00285688D02*
D03*
X00321102Y00292052D02*
D03*
X00264534Y00238312D02*
D03*
X00270898Y00231948D02*
D03*
D43*
X00365000Y00267500D02*
D03*
X00347000D02*
D03*
Y00256500D02*
D03*
X00365000D02*
D03*
X00227000D02*
D03*
X00245000D02*
D03*
Y00267500D02*
D03*
X00227000D02*
D03*
D44*
X00348679Y00217099D02*
D03*
X00335951Y00229827D02*
D03*
X00328173Y00222048D02*
D03*
X00340901Y00209321D02*
D03*
X00243321Y00306901D02*
D03*
X00256049Y00294173D02*
D03*
X00263827Y00301952D02*
D03*
X00251099Y00314680D02*
D03*
D45*
X00319688Y00230534D02*
D03*
X00326052Y00236898D02*
D03*
X00272312Y00293466D02*
D03*
X00265948Y00287102D02*
D03*
D46*
X00455000Y00342000D02*
D03*
X00431000Y00323000D02*
D03*
X00455000D02*
D03*
X00431000Y00342000D02*
D03*
Y00332500D02*
D03*
D47*
X00155500Y00445000D02*
D03*
Y00460000D02*
D03*
D48*
X00072500Y00445000D02*
D03*
Y00515000D02*
D03*
D49*
X00077500Y00469000D02*
D03*
Y00491000D02*
D03*
D50*
X00332500Y00517500D02*
D03*
Y00508500D02*
D03*
X00322500Y00517500D02*
D03*
Y00508500D02*
D03*
D51*
X00420500Y00303000D02*
D03*
X00429500D02*
D03*
X00442000D02*
D03*
X00451000D02*
D03*
X00309500Y00175000D02*
D03*
X00318500D02*
D03*
X00329500D02*
D03*
X00338500D02*
D03*
D52*
X00189000Y00076000D02*
D03*
X00831000Y00105000D02*
D03*
X00832000Y00483000D02*
D03*
D53*
X00546000Y00275500D02*
D03*
D54*
X00580350Y00249500D02*
D03*
Y00253500D02*
D03*
Y00257500D02*
D03*
Y00261500D02*
D03*
Y00265500D02*
D03*
Y00269500D02*
D03*
Y00273500D02*
D03*
Y00277500D02*
D03*
Y00281500D02*
D03*
Y00285500D02*
D03*
Y00289500D02*
D03*
Y00293500D02*
D03*
Y00297500D02*
D03*
Y00301500D02*
D03*
X00511650D02*
D03*
Y00297500D02*
D03*
Y00293500D02*
D03*
Y00289500D02*
D03*
Y00285500D02*
D03*
Y00281500D02*
D03*
Y00277500D02*
D03*
Y00273500D02*
D03*
Y00269500D02*
D03*
Y00265500D02*
D03*
Y00261500D02*
D03*
Y00257500D02*
D03*
Y00253500D02*
D03*
Y00249500D02*
D03*
D55*
X00520000Y00241150D02*
D03*
X00524000D02*
D03*
X00528000D02*
D03*
X00532000D02*
D03*
X00536000D02*
D03*
X00540000D02*
D03*
X00544000D02*
D03*
X00548000D02*
D03*
X00552000D02*
D03*
X00556000D02*
D03*
X00560000D02*
D03*
X00564000D02*
D03*
X00568000D02*
D03*
X00572000D02*
D03*
Y00309850D02*
D03*
X00568000D02*
D03*
X00564000D02*
D03*
X00560000D02*
D03*
X00556000D02*
D03*
X00552000D02*
D03*
X00548000D02*
D03*
X00544000D02*
D03*
X00540000D02*
D03*
X00536000D02*
D03*
X00532000D02*
D03*
X00528000D02*
D03*
X00524000D02*
D03*
X00520000D02*
D03*
D56*
X00800000Y00137893D02*
D03*
Y00197893D02*
D03*
X00837000Y00137893D02*
D03*
Y00197893D02*
D03*
D57*
X00217893Y00498000D02*
D03*
X00277893D02*
D03*
X00217893Y00461000D02*
D03*
X00277893D02*
D03*
D58*
X00145000Y00210000D02*
D03*
D59*
X00398773Y00028573D02*
D03*
X00373373D02*
D03*
X00347973D02*
D03*
X00322573D02*
D03*
X00297173D02*
D03*
X00271773D02*
D03*
X00246373D02*
D03*
X00220973D02*
D03*
X00627373Y00511173D02*
D03*
X00358133D02*
D03*
X00652773D02*
D03*
X00383533D02*
D03*
X00678173D02*
D03*
X00408933D02*
D03*
X00703573D02*
D03*
X00434333D02*
D03*
X00728973D02*
D03*
X00459733D02*
D03*
X00754373D02*
D03*
X00485133D02*
D03*
X00779773D02*
D03*
X00510533D02*
D03*
X00805173D02*
D03*
X00535933D02*
D03*
X00561333D02*
D03*
X00586733D02*
D03*
X00779773Y00028573D02*
D03*
X00805173D02*
D03*
X00449573D02*
D03*
X00474973D02*
D03*
X00500373D02*
D03*
X00525773D02*
D03*
X00551173D02*
D03*
X00576573D02*
D03*
X00601973D02*
D03*
X00627373D02*
D03*
X00678173D02*
D03*
X00703573D02*
D03*
X00728973D02*
D03*
X00754373D02*
D03*
D60*
X00150000Y00122500D02*
D03*
Y00129500D02*
D03*
Y00136500D02*
D03*
Y00143500D02*
D03*
Y00150500D02*
D03*
Y00157500D02*
D03*
Y00269500D02*
D03*
Y00276500D02*
D03*
Y00297500D02*
D03*
Y00283500D02*
D03*
Y00290500D02*
D03*
Y00262500D02*
D03*
D61*
X00806443Y00307973D02*
D03*
X00831843D02*
D03*
X00806443Y00282573D02*
D03*
X00831843D02*
D03*
X00806443Y00257173D02*
D03*
X00831843D02*
D03*
M02*
