G04*
G04 #@! TF.GenerationSoftware,Altium Limited,Altium Designer,21.1.1 (26)*
G04*
G04 Layer_Color=16711935*
%FSAX44Y44*%
%MOMM*%
G71*
G04*
G04 #@! TF.SameCoordinates,35B4BD9A-10F4-4648-9EF8-68C66FDF8F35*
G04*
G04*
G04 #@! TF.FilePolarity,Negative*
G04*
G01*
G75*
%ADD33R,2.2000X1.8500*%
%ADD58O,1.1000X10.1000*%
%ADD60C,0.4000*%
G04:AMPARAMS|DCode=61|XSize=1.9mm|YSize=1.7mm|CornerRadius=0.45mm|HoleSize=0mm|Usage=FLASHONLY|Rotation=0.000|XOffset=0mm|YOffset=0mm|HoleType=Round|Shape=RoundedRectangle|*
%AMROUNDEDRECTD61*
21,1,1.9000,0.8000,0,0,0.0*
21,1,1.0000,1.7000,0,0,0.0*
1,1,0.9000,0.5000,-0.4000*
1,1,0.9000,-0.5000,-0.4000*
1,1,0.9000,-0.5000,0.4000*
1,1,0.9000,0.5000,0.4000*
%
%ADD61ROUNDEDRECTD61*%
G04:AMPARAMS|DCode=75|XSize=2.9mm|YSize=1.9mm|CornerRadius=0.725mm|HoleSize=0mm|Usage=FLASHONLY|Rotation=90.000|XOffset=0mm|YOffset=0mm|HoleType=Round|Shape=RoundedRectangle|*
%AMROUNDEDRECTD75*
21,1,2.9000,0.4500,0,0,90.0*
21,1,1.4500,1.9000,0,0,90.0*
1,1,1.4500,0.2250,0.7250*
1,1,1.4500,0.2250,-0.7250*
1,1,1.4500,-0.2250,-0.7250*
1,1,1.4500,-0.2250,0.7250*
%
%ADD75ROUNDEDRECTD75*%
D33*
X00188502Y00117752D02*
D03*
D58*
X00145000Y00210000D02*
D03*
D60*
X00150000Y00122500D02*
D03*
Y00129500D02*
D03*
Y00136500D02*
D03*
Y00143500D02*
D03*
Y00150500D02*
D03*
Y00157500D02*
D03*
Y00269500D02*
D03*
Y00276500D02*
D03*
Y00297500D02*
D03*
Y00283500D02*
D03*
Y00290500D02*
D03*
Y00262500D02*
D03*
D61*
X00806443Y00307973D02*
D03*
X00831843D02*
D03*
X00806443Y00282573D02*
D03*
X00831843D02*
D03*
X00806443Y00257173D02*
D03*
X00831843D02*
D03*
D75*
X00398773Y00028573D02*
D03*
X00373373D02*
D03*
X00347973D02*
D03*
X00322573D02*
D03*
X00297173D02*
D03*
X00271773D02*
D03*
X00246373D02*
D03*
X00220973D02*
D03*
X00627373Y00511173D02*
D03*
X00358133D02*
D03*
X00652773D02*
D03*
X00383533D02*
D03*
X00678173D02*
D03*
X00408933D02*
D03*
X00703573D02*
D03*
X00434333D02*
D03*
X00728973D02*
D03*
X00459733D02*
D03*
X00754373D02*
D03*
X00485133D02*
D03*
X00779773D02*
D03*
X00510533D02*
D03*
X00805173D02*
D03*
X00535933D02*
D03*
X00561333D02*
D03*
X00586733D02*
D03*
X00779773Y00028573D02*
D03*
X00805173D02*
D03*
X00449573D02*
D03*
X00474973D02*
D03*
X00500373D02*
D03*
X00525773D02*
D03*
X00551173D02*
D03*
X00576573D02*
D03*
X00601973D02*
D03*
X00627373D02*
D03*
X00678173D02*
D03*
X00703573D02*
D03*
X00728973D02*
D03*
X00754373D02*
D03*
M02*
