M48
;Layer_Color=9474304
;FILE_FORMAT=4:4
METRIC
;TYPE=PLATED
T1F00S00C0.2500
T2F00S00C1.0000
%
T01
X00160000Y00010000
X00180000
X00160000Y00030000
Y00050000
Y00070000
Y00090000
Y00110000
Y00130000
Y00150000
Y00170000
Y00190000
X00220500Y00105500
X00238500
X00255000Y00103500
X00268500Y00103500
X00276500Y00110500
X00285000Y00103500
X00310000
X00300000Y00125000
X00328000Y00124500
X00359500
X00367000Y00105500
X00342500Y00105500
X00335500Y00062000
X00360500
X00386000Y00062500
X00412000Y00069500
X00411500Y00050000
X00438000Y00052500
X00452000Y00052000
X00444000Y00064000
X00459000Y00066500
X00455000Y00126500
X00443000Y00128500
X00452500Y00144500
Y00162500
X00453500Y00180500
X00476000Y00178000
X00478500Y00159000
X00480500Y00143500
X00465500Y00137000
X00492500Y00126500
X00519000Y00125000
X00516500Y00141000
X00528500Y00144500
X00512000Y00160000
X00498000Y00159500
X00512000Y00176000
X00545000Y00125500
X00564500Y00057000
X00420000Y00010000
X00410000
X00385000
X00360000
X00335000
X00310000
X00285000
X00260000
X00235000
X00207500
X00199000Y00033000
X00206000Y00059000
X00233500Y00056000
X00259000
X00285000Y00061000
X00310000Y00062500
X00309500Y00184000
X00378000Y00175000
X00393000Y00146000
X00385500Y00127500
X00390000Y00113000
X00403000Y00118500
X00412000Y00126000
X00414500Y00160000
X00429000Y00146500
X00615000Y00142500
Y00153500
Y00164500
X00622000Y00159000
X00621500Y00148000
X00622000Y00137000
Y00126000
X00615000Y00120500
Y00131500
X00614947Y00182000
X00621447Y00187500
X00621947Y00176500
X00712500Y00174000
X00712000Y00112000
X00721000Y00107000
X00732000
X00743000
X00754000
X00748500Y00114000
X00737500
X00726500
X00759500
X00771500Y00106500
X00781088Y00116500
X00809500Y00104500
X00821500Y00080000
X00822000Y00056500
X00845000Y00051000
Y00071000
Y00089000
X00846000Y00119000
X00845000Y00150000
X00828607Y00137893
X00829000Y00167000
X00845000Y00185000
X00842000Y00024000
X00820000Y00010000
X00790000
X00765000
X00740000
X00715000
X00690000
X00660000
X00640000
X00651500Y00029000
X00660000Y00049000
X00666000Y00059000
Y00068500
X00649500Y00065000
X00767000Y00059500
X00792500Y00062000
X00798500Y00217500
X00797500Y00230500
X00809500Y00232500
X00827500
X00826000Y00217000
X00828607Y00197893
X00845000Y00224000
Y00245000
Y00270000
Y00320000
Y00340000
Y00360000
Y00380000
Y00400000
Y00420000
Y00440000
Y00460000
X00820500Y00458000
X00792500Y00459500
X00801000Y00426500
X00800000Y00414000
X00819000Y00428000
X00822000Y00389000
X00826000Y00358500
X00807000Y00350500
X00799500Y00373500
X00821000Y00334000
X00699500Y00328000
Y00317000
Y00306000
Y00295000
X00692500Y00300500
Y00311500
Y00322500
Y00333500
X00699500Y00347000
X00690000Y00358500
X00679000Y00369000
X00666500Y00381000
X00633957Y00347000
X00642000Y00333500
Y00322500
Y00311500
Y00300500
X00649000Y00306000
Y00317000
Y00328000
Y00295000
X00647000Y00276500
X00641000Y00267500
X00628500Y00275000
X00626000Y00286000
X00616000Y00287500
X00616000Y00297500
X00616000Y00277500
X00591500Y00276500
X00591000Y00284500
X00592000Y00337500
X00612000
X00614000Y00221000
X00607990Y00214990
X00614947Y00204000
Y00193000
X00621947Y00198500
X00640000Y00227500
X00649500Y00227000
Y00248000
X00642000Y00241000
X00692000Y00244500
Y00235500
X00698000Y00254500
Y00263000
X00692500Y00272000
X00700000Y00278000
X00692500Y00286500
X00742000Y00394000
X00739500Y00428500
X00721000Y00418500
X00707000Y00433000
X00715000Y00530000
X00690000
X00665000
X00640000
X00615000
X00595000
X00608220Y00508086
X00607000Y00491000
X00607500Y00472500
X00745000Y00530000
X00770000
X00795000
X00815000
X00835858Y00529142
X00843000Y00519000
X00845000Y00505000
X00575000Y00530000
X00555000
X00450000
X00420000
X00395000
X00371000Y00526000
X00343500Y00531500
X00305000Y00530000
X00285000
X00265000
X00245000
X00225000
X00205000
X00196000Y00502000
X00190662Y00487288
X00197733Y00480217
X00197000Y00466000
X00217893Y00469393
X00239000Y00461000
X00256500Y00460500
X00277893Y00469393
X00302000Y00479000
X00304000Y00499500
X00330000
X00336500Y00477000
X00339000Y00455000
X00317000Y00464000
X00314500Y00446750
Y00436750
Y00424500
Y00414500
X00333000Y00415000
X00349000Y00403000
X00364000Y00390500
X00378500Y00377500
X00411500Y00379000
X00427000Y00389000
X00446000Y00383000
X00445500Y00399500
X00451500Y00413500
X00433500Y00427500
X00414000Y00432000
X00406500Y00400000
X00388000Y00415500
X00372000Y00432000
X00322500Y00394500
X00297500Y00418500
X00271500Y00418000
X00245500
X00219500Y00417500
X00217500Y00395500
X00198500Y00412500
X00194000Y00375000
X00212500Y00347500
X00235896Y00299477
X00259584Y00280738
X00257000Y00249500
X00227000Y00246000
X00277262Y00225584
X00308500Y00223000
X00312000Y00193000
X00258523Y00201896
X00319000Y00256500
X00332416Y00243262
X00335000Y00274500
X00365000Y00278000
X00399500Y00273500
X00396000Y00256500
X00379500Y00245072
X00366000Y00236500
X00356104Y00224523
X00378000Y00204500
X00402500Y00232000
X00452500Y00234500
X00446500Y00246000
Y00256000
X00441500Y00270000
X00459500Y00272000
X00467500Y00267500
X00467500Y00277500
X00467500Y00293500
X00464500Y00301000
X00475000Y00303500
X00475000Y00315000
X00486500Y00334000
X00487000Y00345000
X00502000Y00344000
X00516000Y00343500
X00507015Y00327000
X00509000Y00316000
X00491500Y00293500
X00491500Y00277500
Y00267500
X00471000Y00256000
X00524500Y00253500
X00539000Y00253000
X00552500
X00567000
X00567500Y00272000
Y00280000
X00558000Y00275500
X00546000
X00534000
Y00263500
X00546000
X00558000
Y00287500
X00546000
X00534000
X00523000Y00284000
Y00268000
X00522000Y00224000
X00514500Y00207500
X00512000Y00191500
X00489550Y00197300
X00489500Y00205300
X00452000Y00211000
X00423500Y00273500
X00420272Y00310500
X00412000Y00303000
X00418000Y00325500
X00410000Y00342000
X00381500Y00337000
Y00324000
X00371500Y00330000
X00356500Y00340000
X00333477Y00322104
X00314738Y00298416
X00283500Y00301000
X00280000Y00331000
X00267500Y00395000
X00299500Y00447500
X00447000Y00453000
X00476000Y00434500
X00491500Y00418500
X00508000Y00419000
X00524500Y00419500
X00515500Y00429000
X00531000Y00431500
X00545000Y00422500
X00543500Y00404000
X00556500Y00412500
X00523000Y00382000
X00505000Y00384500
X00487500Y00381000
X00464000Y00382000
X00461000Y00333000
X00441500Y00332500
X00435500Y00311500
X00565000Y00327000
Y00336000
X00576000Y00337500
X00563500Y00224000
Y00215000
Y00206000
X00160000Y00210000
Y00230000
Y00250000
Y00270000
Y00290000
Y00310000
Y00330000
Y00350000
Y00370000
Y00390000
Y00410000
X00179500Y00389500
X00165500Y00460000
X00145500
X00152000Y00494500
X00150500Y00515000
X00160500
X00170500
X00180500
X00190500
X00185000Y00530000
X00165000
X00174929Y00503021
X00182000Y00495950
T02
X00220973Y00028573
X00246373
X00271773
X00297173
X00322573
X00347973
X00373373
X00398773
X00449573
X00474973
X00500373
X00525773
X00551173
X00576573
X00601973
X00627373
X00678173
X00703573
X00728973
X00754373
X00779773
X00805173
X00806443Y00257173
Y00282573
Y00307973
X00831843
Y00282573
Y00257173
X00805173Y00511173
X00779773
X00754373
X00728973
X00703573
X00678173
X00652773
X00627373
X00586733
X00561333
X00535933
X00510533
X00485133
X00459733
X00434333
X00408933
X00383533
X00358133
M30
